<?xml version="1.0" encoding="UTF-8"?>
<svg id="Ebene_1" xmlns="http://www.w3.org/2000/svg" version="1.1" viewBox="0 0 36.91 16.64">
  <!-- Generator: Adobe Illustrator 30.3.0, SVG Export Plug-In . SVG Version: 2.1.3 Build 182)  -->
  <defs>
    <style>
      .st0 {
        fill: #303131;
      }
    </style>
  </defs>
  <path class="st0" d="M36.09,7.19L29.72.82c-.62-.62-1.64-.62-2.26,0-.62.62-.62,1.64,0,2.26l3.63,3.63H1.96c-.88,0-1.6.72-1.6,1.6s.72,1.6,1.6,1.6h29.14l-3.63,3.63c-.3.3-.47.7-.47,1.13,0,.43.17.83.47,1.13.31.31.72.47,1.13.47s.82-.16,1.13-.47l6.36-6.36c.62-.62.62-1.64,0-2.26Z"/>
</svg>