<?xml version="1.0" encoding="UTF-8"?>
<svg id="Ebene_1" xmlns="http://www.w3.org/2000/svg" version="1.1" viewBox="0 0 120 120">
  <!-- Generator: Adobe Illustrator 30.3.0, SVG Export Plug-In . SVG Version: 2.1.3 Build 182)  -->
  <defs>
    <style>
      .st0 {
        fill: #e8f3f0;
      }

      .st1 {
        fill: #303131;
      }
    </style>
  </defs>
  <rect class="st0" width="120" height="120"/>
  <g id="_x32_069a460dcf28295e231f3111e035a9d">
    <path class="st1" d="M69.53,61.41c.08.42.13.93.13,1.35v3.08c0,.55-.04,1.05-.17,1.52-.51,2.23-2.36,3.67-4.47,3.67-3.29,0-5.14-2.74-5.14-6.49s1.85-6.79,5.18-6.79c2.36,0,4,1.64,4.47,3.67h0ZM89.75,40.17v39.67c0,5.45-4.46,9.92-9.92,9.92h-39.67c-5.45,0-9.92-4.46-9.92-9.92v-39.67c0-5.45,4.46-9.92,9.92-9.92h39.67c5.45,0,9.92,4.46,9.92,9.92h0ZM50.18,46.32h-5.18v28.41h5.18v-28.41ZM75.01,74.73c-.08-1.39-.17-3.67-.17-5.77v-24.15h-5.18v11.63h-.08c-.93-1.52-2.95-2.7-5.77-2.7-4.93,0-9.23,4.09-9.19,10.96,0,6.32,3.88,10.5,8.77,10.5,2.99,0,5.48-1.43,6.7-3.71h.08l.21,3.25h4.64Z"/>
  </g>
</svg>