<?xml version="1.0" encoding="UTF-8"?>
<svg id="Ebene_1" xmlns="http://www.w3.org/2000/svg" version="1.1" viewBox="0 0 120 120">
  <!-- Generator: Adobe Illustrator 30.3.0, SVG Export Plug-In . SVG Version: 2.1.3 Build 182)  -->
  <defs>
    <style>
      .st0 {
        fill: #e8f3f0;
      }

      .st1 {
        fill: #303131;
      }
    </style>
  </defs>
  <rect class="st0" width="120" height="120"/>
  <path class="st1" d="M70.76,51.37c-4.77,0-8.64,3.87-8.64,8.64s3.87,8.64,8.64,8.64h.28c4.77,0,8.64-3.87,8.64-8.64s-3.87-8.64-8.64-8.64h-.28ZM71.03,72.84h-.28c-7.09,0-12.84-5.75-12.84-12.84s5.75-12.84,12.84-12.84h.28c7.09,0,12.84,5.75,12.84,12.84s-5.75,12.84-12.84,12.84h0ZM49,72.84h0c-4.77,0-8.64,3.87-8.64,8.64s3.87,8.64,8.64,8.64h.08,0,.02c4.86,0,8.8-3.92,8.82-8.77v-8.5h-8.92,0ZM49.07,94.32h-.1c-7.09,0-12.84-5.75-12.84-12.84s5.75-12.84,12.84-12.84h13.16v12.7c-.03,7.18-5.85,12.98-13.03,12.98h-.02,0ZM49,51.37c-4.77,0-8.64,3.87-8.64,8.64s3.87,8.64,8.64,8.64h8.91v-17.27h-8.91s0,0,0,0ZM62.12,72.84h-13.12c-7.09,0-12.84-5.75-12.84-12.84s5.75-12.84,12.84-12.84h13.12v25.69h0ZM49,29.89c-4.77,0-8.64,3.87-8.64,8.64s3.87,8.64,8.64,8.64h8.91v-17.27h-8.91ZM62.12,51.37h-13.12c-7.09,0-12.84-5.75-12.84-12.84s5.75-12.84,12.84-12.84h13.12v25.69h0ZM62.12,47.16h8.92c4.76-.01,8.62-3.87,8.62-8.64s-3.85-8.62-8.62-8.64h-8.92v17.27h0ZM71.03,51.37h-13.12v-25.69h13.12c7.09,0,12.84,5.75,12.84,12.84s-5.75,12.84-12.84,12.84h0s0,0,0,0Z"/>
</svg>