<?xml version="1.0" encoding="UTF-8"?>
<svg id="Ebene_1" xmlns="http://www.w3.org/2000/svg" version="1.1" viewBox="0 0 120 120">
  <!-- Generator: Adobe Illustrator 30.3.0, SVG Export Plug-In . SVG Version: 2.1.3 Build 182)  -->
  <defs>
    <style>
      .st0 {
        fill: #e8f3f0;
      }

      .st1 {
        fill: #303131;
      }
    </style>
  </defs>
  <rect class="st0" width="120" height="120"/>
  <g id="_x32_069a460dcf28295e231f3111e03585e">
    <path class="st1" d="M56.69,55.57l2.24,7.01h-7.3l2.19-7.01c.51-1.69.93-3.67,1.35-5.32h.08c.42,1.65.89,3.59,1.44,5.32h0ZM89.8,40.14v39.73c0,5.46-4.47,9.93-9.93,9.93h-39.73c-5.46,0-9.93-4.47-9.93-9.93v-39.73c0-5.46,4.47-9.93,9.93-9.93h39.73c5.46,0,9.93,4.47,9.93,9.93h0ZM67.96,74.56l-9.24-28.45h-6.63l-9.12,28.45h5.36l2.45-8.06h9.03l2.57,8.06h5.57,0ZM76.74,54.01h-5.23v20.56h5.23v-20.56ZM77.03,48.27c-.04-1.6-1.14-2.83-2.91-2.83s-2.91,1.22-2.91,2.83,1.14,2.79,2.87,2.79,2.95-1.22,2.95-2.79h0Z"/>
  </g>
</svg>