<?xml version="1.0" encoding="UTF-8"?>
<svg id="Ebene_1" xmlns="http://www.w3.org/2000/svg" version="1.1" viewBox="0 0 120 120">
  <!-- Generator: Adobe Illustrator 30.3.0, SVG Export Plug-In . SVG Version: 2.1.3 Build 182)  -->
  <defs>
    <style>
      .st0 {
        fill: #e8f3f0;
      }

      .st1 {
        fill: #303131;
      }
    </style>
  </defs>
  <rect class="st0" width="120" height="120"/>
  <g>
    <path class="st1" d="M57.36,26.54h10.96v50.22c-5.62,1.06-9.75,1.48-14.22,1.48-13.39-.01-20.36-5.99-20.36-17.47s7.39-18.24,18.85-18.24c1.78,0,3.13.14,4.77.56v-16.54ZM57.75,52.13c-1.28-.42-2.34-.56-3.7-.56-5.55,0-8.75,3.38-8.75,9.3s3.06,8.95,8.68,8.95c1.21,0,2.2-.07,3.77-.28v-17.42Z"/>
    <path class="st1" d="M86.26,43.87v25.14c0,8.66-.65,12.82-2.55,16.41-1.78,3.45-4.12,5.63-8.96,8.03l-10.17-4.79c4.84-2.25,7.18-4.23,8.68-7.26,1.57-3.1,2.06-6.69,2.06-16.13v-21.4h10.95,0ZM74.2,26.54h10.96v11.13h-10.96s0-11.13,0-11.13Z"/>
  </g>
</svg>