<?xml version="1.0" encoding="UTF-8"?>
<svg id="Ebene_1" xmlns="http://www.w3.org/2000/svg" version="1.1" viewBox="0 0 120 120">
  <!-- Generator: Adobe Illustrator 30.3.0, SVG Export Plug-In . SVG Version: 2.1.3 Build 182)  -->
  <defs>
    <style>
      .st0 {
        fill: #e8f3f0;
      }

      .st1 {
        fill: #303131;
      }
    </style>
  </defs>
  <rect class="st0" width="120" height="120"/>
  <g id="_x32_069a460dcf28295e231f3111e037552">
    <path class="st1" d="M79.9,30.15h-39.81c-5.47,0-9.95,4.48-9.95,9.95v39.8c0,5.47,4.48,9.95,9.95,9.95h39.8c5.47,0,9.95-4.48,9.95-9.95v-39.8c0-5.47-4.48-9.95-9.95-9.95h0ZM58.75,60.53c-2.07,2.07-5.33,3.05-9.01,3.05-.97,0-1.86-.04-2.54-.17v10.74h-5.16v-28.13c1.86-.34,4.44-.59,7.95-.59,3.81,0,6.6.8,8.42,2.33,1.69,1.4,2.79,3.64,2.79,6.3s-.85,4.95-2.45,6.47h0ZM69.58,74.57c-2.5,0-4.74-.59-6.26-1.44l1.01-3.76c1.18.72,3.43,1.48,5.29,1.48,2.28,0,3.3-.93,3.3-2.28s-.85-2.11-3.38-3c-4.02-1.4-5.71-3.6-5.67-6.01,0-3.64,3-6.47,7.78-6.47,2.28,0,4.27.59,5.46,1.23l-1.01,3.68c-.89-.51-2.54-1.18-4.36-1.18s-2.88.89-2.88,2.16.97,1.95,3.6,2.88c3.72,1.35,5.46,3.26,5.5,6.3,0,3.72-2.92,6.43-8.37,6.43h0ZM56,54.27c0,3.34-2.37,5.25-6.26,5.25-1.06,0-1.9-.04-2.54-.21v-9.64c.55-.13,1.57-.25,3-.25,3.6,0,5.79,1.69,5.79,4.86h0Z"/>
  </g>
</svg>