<?xml version="1.0" encoding="UTF-8"?>
<svg id="Ebene_1" xmlns="http://www.w3.org/2000/svg" version="1.1" viewBox="0 0 120 120">
  <!-- Generator: Adobe Illustrator 30.3.0, SVG Export Plug-In . SVG Version: 2.1.3 Build 182)  -->
  <defs>
    <style>
      .st0 {
        fill: #e8f3f0;
      }

      .st1 {
        fill: #303131;
      }
    </style>
  </defs>
  <rect class="st0" width="120" height="120"/>
  <path class="st1" d="M77.86,51.92v4.97c0,.2-.13.28-.41.28-.19-.01-.4-.02-.62-.02-1.52,0-2.96.33-4.26.91l.07-.03c-.54.23-.99.55-1.37.94h0v12.99c0,.25-.1.36-.33.36h-4.97s-.04,0-.06,0c-.18,0-.33-.13-.35-.31v-14.22c0-.61,0-1.25-.02-1.91s-.02-1.33-.05-1.99c-.03-.56-.08-1.12-.15-1.68,0-.02,0-.03,0-.05,0-.11.08-.21.18-.23h0s.05-.02.1,0h4.46c.25,0,.46.17.53.4h0c.1.17.17.37.2.58h0c.05.26.1.54.13.8.02.28.05.58.05.92.76-.88,1.66-1.61,2.67-2.17l.05-.02c1.05-.58,2.3-.92,3.62-.92.06,0,.12,0,.18,0h0s.03,0,.04,0c.16,0,.3.12.32.28v.11h0ZM61.94,71.95c0,.12-.07.23-.15.31h0c-.07.05-.15.07-.24.07h-16.16c-.28,0-.41-.15-.41-.46v-26.03s0-.03,0-.04c0-.16.12-.3.28-.32h5.1s.03,0,.04,0c.12,0,.22.09.24.21v21.48h11.77c.26,0,.33.12.28.36l-.74,4.43h0ZM79.74,30.19h-39.49c-5.97,0-10.82,4.84-10.82,10.82h0v37.98c0,5.97,4.84,10.82,10.82,10.82h39.5c5.97,0,10.82-4.84,10.82-10.82h0v-37.98c0-5.97-4.84-10.82-10.82-10.82h-.01Z"/>
</svg>