<?xml version="1.0" encoding="UTF-8"?>
<svg id="Ebene_1" xmlns="http://www.w3.org/2000/svg" version="1.1" viewBox="0 0 120 120">
  <!-- Generator: Adobe Illustrator 30.3.0, SVG Export Plug-In . SVG Version: 2.1.3 Build 182)  -->
  <defs>
    <style>
      .st0 {
        fill: #e8f3f0;
      }

      .st1 {
        fill: #303131;
        fill-rule: evenodd;
      }
    </style>
  </defs>
  <rect class="st0" width="120" height="120"/>
  <g id="Page-1">
    <g id="Dribbble-Light-Preview">
      <g id="icons">
        <path id="github-_x5B__x23_142_x5D_" class="st1" d="M60,30.37c16.37,0,29.63,13.6,29.63,30.38,0,13.42-8.48,24.81-20.25,28.83-1.5.3-2.04-.65-2.04-1.46,0-1,.04-4.27.04-8.34,0-2.83-.95-4.68-2.01-5.62,6.6-.75,13.53-3.32,13.53-14.99,0-3.32-1.15-6.03-3.05-8.16.31-.77,1.32-3.86-.29-8.04,0,0-2.48-.81-8.14,3.12-2.37-.67-4.9-1.01-7.42-1.02-2.52.01-5.05.35-7.42,1.02-5.66-3.93-8.15-3.12-8.15-3.12-1.61,4.18-.59,7.28-.29,8.04-1.89,2.13-3.05,4.84-3.05,8.16,0,11.64,6.92,14.25,13.5,15.02-.85.76-1.62,2.1-1.88,4.06-1.69.78-5.98,2.12-8.62-2.52,0,0-1.57-2.92-4.54-3.13,0,0-2.89-.04-.2,1.85,0,0,1.94.93,3.29,4.45,0,0,1.74,5.42,9.98,3.59.01,2.54.04,4.93.04,5.66,0,.8-.55,1.74-2.02,1.46-11.78-4.02-20.27-15.41-20.27-28.83,0-16.78,13.27-30.38,29.63-30.38"/>
      </g>
    </g>
  </g>
</svg>