<?xml version="1.0" encoding="UTF-8"?>
<svg id="Ebene_1" xmlns="http://www.w3.org/2000/svg" version="1.1" viewBox="0 0 120 120">
  <!-- Generator: Adobe Illustrator 30.3.0, SVG Export Plug-In . SVG Version: 2.1.3 Build 182)  -->
  <defs>
    <style>
      .st0 {
        fill: #e8f3f0;
      }

      .st1 {
        fill: #303131;
        fill-rule: evenodd;
      }
    </style>
  </defs>
  <rect class="st0" width="120" height="120"/>
  <path class="st1" d="M38.29,30.42c-4.24,0-7.37,3.71-7.23,7.73.13,3.86-.04,8.87-1.3,12.95-1.26,4.09-3.4,6.69-6.89,7.02v3.76c3.49.33,5.63,2.93,6.89,7.02,1.26,4.08,1.44,9.09,1.3,12.95-.14,4.02,2.99,7.73,7.23,7.73h43.42c4.24,0,7.37-3.71,7.23-7.73-.13-3.86.04-8.87,1.3-12.95,1.26-4.09,3.4-6.69,6.89-7.02v-3.76c-3.49-.33-5.62-2.93-6.89-7.02-1.26-4.08-1.44-9.09-1.3-12.95.14-4.02-2.99-7.73-7.23-7.73h-43.42ZM73.22,66.84c0,5.54-4.13,8.9-10.99,8.9h-11.67c-.33,0-.65-.13-.89-.37s-.37-.56-.37-.89v-28.95c0-.33.13-.65.37-.89.24-.24.56-.37.89-.37h11.6c5.72,0,9.47,3.1,9.47,7.85,0,3.34-2.52,6.32-5.74,6.85v.17c4.38.48,7.32,3.51,7.32,7.7h0ZM60.96,48.26h-6.65v9.4h5.6c4.33,0,6.72-1.74,6.72-4.86,0-2.92-2.05-4.54-5.67-4.54ZM54.3,61.39v10.36h6.9c4.51,0,6.9-1.81,6.9-5.21s-2.46-5.15-7.19-5.15h-6.61Z"/>
</svg>