<?xml version="1.0" encoding="UTF-8"?>
<svg id="Ebene_1" xmlns="http://www.w3.org/2000/svg" version="1.1" viewBox="0 0 120 120">
  <!-- Generator: Adobe Illustrator 30.3.0, SVG Export Plug-In . SVG Version: 2.1.3 Build 182)  -->
  <defs>
    <style>
      .st0 {
        fill: #e8f3f0;
      }

      .st1 {
        fill: #303131;
        fill-rule: evenodd;
      }
    </style>
  </defs>
  <rect class="st0" width="120" height="120"/>
  <g id="_x35_151e0c8492e5103c096af88a51e75c7">
    <path class="st1" d="M30.11,30.05c-.07,0-.06.09-.06.17v59.66c19.85.13,39.95.02,59.9.06V30.05H30.11ZM60.46,82.99c-1.39,1.4-3.57,2.22-6.26,2.22-4.41,0-6.86-2.15-8.43-5.12,1.51-.96,3.04-1.89,4.61-2.79.64,1.79,2.8,3.8,5.24,2.56,1.55-.79,1.37-3.17,1.37-5.75v-16.4c0-.08,0-.16.06-.17h5.52v13.78c0,4.99.36,9.19-2.11,11.67h0ZM85.17,78.04c-.31,4.68-4.13,7.16-9.28,7.17-5.05.01-8.28-2.23-10.25-5.69,1.42-.98,3.02-1.76,4.5-2.68,1.18,1.85,3.23,3.62,6.26,3.36,1.89-.17,4.09-1.71,2.85-4.04-.6-1.13-2.05-1.71-3.36-2.28-4.14-1.81-9.01-3.47-8.54-9.96.16-2.17,1.15-3.7,2.45-4.78,1.33-1.11,3.1-1.86,5.47-1.94,4.29-.14,6.65,1.77,8.26,4.44-1.37,1.04-2.87,1.95-4.38,2.85-.5-1.52-2.89-3.01-4.9-2.11-.91.41-1.73,1.61-1.25,3.07.43,1.3,2.18,2.02,3.59,2.62,4.26,1.82,9.02,3.61,8.6,9.96h0Z"/>
  </g>
</svg>