<?xml version="1.0" encoding="UTF-8"?>
<svg id="Ebene_1" xmlns="http://www.w3.org/2000/svg" version="1.1" viewBox="0 0 120 120">
  <!-- Generator: Adobe Illustrator 30.3.0, SVG Export Plug-In . SVG Version: 2.1.3 Build 182)  -->
  <defs>
    <style>
      .st0 {
        fill: #e8f3f0;
      }

      .st1 {
        fill: #303131;
      }
    </style>
  </defs>
  <rect class="st0" width="120" height="120"/>
  <g id="_x33_e91140ac1bfb9903b91c1b0ca08b5fa">
    <path class="st1" d="M79.89,30.16h-39.78c-5.47,0-9.95,4.48-9.95,9.95v39.78c0,5.47,4.48,9.95,9.95,9.95h39.78c5.47,0,9.95-4.48,9.95-9.95v-39.78c0-5.47-4.48-9.95-9.95-9.95h0ZM61.44,43.05c1.48-1.8,4.02-3.19,6.19-3.34.37,2.47-.64,4.88-1.97,6.59-1.43,1.83-3.88,3.25-6.25,3.18-.43-2.36.68-4.79,2.03-6.42h0ZM74.78,74.41c-1.71,2.6-4.12,5.85-7.11,5.88-2.65.03-3.34-1.73-6.94-1.71-3.6.02-4.35,1.74-7.01,1.72-2.98-.03-5.27-2.96-6.98-5.56-3.52-5.37-4.7-11.41-3.91-16.05.28-1.65.81-3.14,1.58-4.33,2.1-3.23,5.41-5.13,8.51-5.13s5.15,1.74,7.77,1.74,4.09-1.74,7.75-1.74c2.77,0,5.69,1.51,7.78,4.12-2.07,1.14-3.4,2.82-4.07,4.7-1.55,4.32.43,9.64,5.25,11.46-.95,2.11-1.41,3.06-2.63,4.93h0Z"/>
  </g>
</svg>