<?xml version="1.0" encoding="UTF-8"?>
<svg id="Ebene_1" xmlns="http://www.w3.org/2000/svg" version="1.1" viewBox="0 0 120 120">
  <!-- Generator: Adobe Illustrator 30.3.0, SVG Export Plug-In . SVG Version: 2.1.3 Build 182)  -->
  <defs>
    <style>
      .st0 {
        fill: #e8f3f0;
      }

      .st1 {
        fill: #303131;
      }
    </style>
  </defs>
  <rect class="st0" width="120" height="120"/>
  <g id="_x33_e91140ac1bfb9903b91c1b0ca0962b6">
    <path class="st1" d="M91.9,63.09l-28.81,28.81c-1.67,1.67-4.37,1.67-6.04,0l-28.95-28.95c-1.67-1.67-1.67-4.37,0-6.04l19.85-19.85,7.52,7.52c-.77,1.85-.41,4.05,1.09,5.55.49.49,1.06.86,1.66,1.11v18.2c-.61.25-1.17.62-1.66,1.11-1.98,1.98-1.98,5.2,0,7.19,1.98,1.98,5.2,1.98,7.18,0,1.98-1.99,1.98-5.2,0-7.19-.4-.4-.86-.72-1.34-.96v-18.04l6.85,6.85c-.76,1.84-.39,4.03,1.11,5.53,1.99,1.99,5.2,1.99,7.19,0,1.98-1.98,1.98-5.2,0-7.18-1.42-1.42-3.47-1.82-5.25-1.21l-7.35-7.35c.61-1.78.22-3.83-1.2-5.25-1.41-1.41-3.44-1.81-5.22-1.22l-7.62-7.63,6.01-6.01c1.67-1.67,4.37-1.67,6.04,0l28.95,28.95c1.67,1.67,1.67,4.37,0,6.04Z"/>
  </g>
</svg>