<?xml version="1.0" encoding="UTF-8"?>
<svg id="Ebene_1" xmlns="http://www.w3.org/2000/svg" version="1.1" viewBox="0 0 120 120">
  <!-- Generator: Adobe Illustrator 30.3.0, SVG Export Plug-In . SVG Version: 2.1.3 Build 182)  -->
  <defs>
    <style>
      .st0 {
        fill: #e8f3f0;
      }

      .st1 {
        fill: #303131;
      }
    </style>
  </defs>
  <rect class="st0" width="120" height="120"/>
  <g id="c133de6af664cd4f011a55de6b001b19">
    <path class="st1" d="M89.93,26.33l-5.61,60.8-24.32,6.55-24.32-6.55-5.61-60.8h59.87ZM78.62,38.69h-37.62l.91,7.34h19.08l-1.01.42-17.41,7.25.58,7.18,16.83.05,9.02.03-.58,9.57-8.44,2.38h0s-.07.01-.07.01l-8.15-2.06-.5-5.94h-7.62l.99,11.47,15.34,4.54h0s.03,0,.03,0l15.26-4.46,1.98-22.77h-17.31l.04-.02,17.9-7.65.74-7.34h0Z"/>
  </g>
</svg>