<?xml version="1.0" encoding="UTF-8"?>
<svg id="Ebene_1" xmlns="http://www.w3.org/2000/svg" version="1.1" viewBox="0 0 120 120">
  <!-- Generator: Adobe Illustrator 30.3.0, SVG Export Plug-In . SVG Version: 2.1.3 Build 182)  -->
  <defs>
    <style>
      .st0 {
        fill: #e8f3f0;
      }

      .st1 {
        fill: #303131;
      }
    </style>
  </defs>
  <rect class="st0" width="120" height="120"/>
  <g id="c133de6af664cd4f011a55de6b0011b2">
    <path class="st1" d="M30.43,26.46l5.38,60.37,24.15,6.7,24.22-6.71,5.39-60.36H30.43ZM78.35,40.79l-.34,3.75-.15,1.66h-28.33l.68,7.58h26.98l-.18,1.99-1.74,19.49-.11,1.25-15.15,4.2h0s-.03.01-.03.01l-15.17-4.21-1.04-11.63h7.43l.53,5.91,8.25,2.23h0s8.26-2.23,8.26-2.23l.86-9.6h-25.66l-1.82-20.4-.18-1.99h37.09l-.18,1.99Z"/>
  </g>
</svg>