<?xml version="1.0" encoding="UTF-8"?>
<svg id="Ebene_1" xmlns="http://www.w3.org/2000/svg" version="1.1" viewBox="0 0 120 120">
  <!-- Generator: Adobe Illustrator 30.3.0, SVG Export Plug-In . SVG Version: 2.1.3 Build 182)  -->
  <defs>
    <style>
      .st0 {
        fill: #e8f3f0;
      }

      .st1 {
        fill: #303131;
      }
    </style>
  </defs>
  <rect class="st0" width="120" height="120"/>
  <g>
    <path class="st1" d="M59.78,29.97c-15.27,0-14.31,6.65-14.31,6.65l.02,6.89h14.57v2.07h-20.35s-9.77-1.11-9.77,14.35,8.53,14.92,8.53,14.92h5.09v-7.18s-.27-8.56,8.39-8.56h14.45s8.12.13,8.12-7.88v-13.24s1.23-8.01-14.72-8.01h0ZM51.75,34.6c.34,0,.69.07,1,.2s.61.33.85.57c.24.24.44.53.57.85s.2.66.2,1.01-.07.69-.2,1.01-.32.61-.57.85c-.24.24-.53.44-.85.57s-.66.2-1,.2-.69-.07-1-.2-.61-.33-.85-.57c-.24-.24-.44-.53-.57-.85s-.2-.66-.2-1.01.07-.69.2-1.01.32-.61.57-.85c.24-.24.53-.44.85-.57s.66-.2,1-.2Z"/>
    <path class="st1" d="M60.22,90.03c15.27,0,14.31-6.65,14.31-6.65l-.02-6.89h-14.57v-2.07h20.35s9.77,1.11,9.77-14.35-8.53-14.92-8.53-14.92h-5.09v7.18s.27,8.56-8.39,8.56h-14.45s-8.12-.13-8.12,7.88v13.24s-1.23,8.01,14.72,8.01h0ZM68.25,85.4c-.34,0-.69-.07-1-.2-.32-.13-.61-.33-.85-.57s-.44-.53-.57-.85c-.13-.32-.2-.66-.2-1.01s.07-.69.2-1.01c.13-.32.32-.61.57-.85.24-.24.53-.44.85-.57s.66-.2,1-.2.69.07,1,.2c.32.13.61.33.85.57s.44.53.57.85c.13.32.2.66.2,1.01s-.07.69-.2,1.01c-.13.32-.32.61-.57.85-.24.24-.53.44-.85.57s-.66.2-1,.2Z"/>
  </g>
</svg>