<?xml version="1.0" encoding="UTF-8"?>
<svg id="Ebene_1" xmlns="http://www.w3.org/2000/svg" version="1.1" viewBox="0 0 120 120">
  <!-- Generator: Adobe Illustrator 30.3.0, SVG Export Plug-In . SVG Version: 2.1.3 Build 182)  -->
  <defs>
    <style>
      .st0 {
        fill: #e8f3f0;
      }

      .st1 {
        fill: #303131;
      }
    </style>
  </defs>
  <rect class="st0" width="120" height="120"/>
  <g>
    <path class="st1" d="M81.34,30.13h-42.67c-4.69,0-8.53,3.84-8.53,8.53v42.67c0,4.69,3.84,8.53,8.53,8.53h42.67c4.69,0,8.53-3.84,8.53-8.53v-42.67c0-4.69-3.84-8.53-8.53-8.53ZM81.34,77.07l-10.45,4.27-17.28-17.07-10.88,8.53-4.27-2.13v-21.34l4.27-2.13,10.88,8.53,17.07-17.07,10.67,4.27v34.14Z"/>
    <polygon class="st1" points="42.72 66.61 49.33 60 42.93 53.39 42.72 66.61"/>
    <polygon class="st1" points="70.67 68.75 70.67 51.04 59.36 60 70.67 68.75"/>
  </g>
</svg>