<?xml version="1.0" encoding="UTF-8"?>
<svg id="Ebene_1" xmlns="http://www.w3.org/2000/svg" version="1.1" viewBox="0 0 120 120">
  <!-- Generator: Adobe Illustrator 30.3.0, SVG Export Plug-In . SVG Version: 2.1.3 Build 182)  -->
  <defs>
    <style>
      .st0 {
        fill: #e8f3f0;
      }

      .st1 {
        fill: #303131;
      }
    </style>
  </defs>
  <rect class="st0" width="120" height="120"/>
  <path class="st1" d="M30.04,60v29.96h59.92V30.04H30.04v29.96ZM78.33,57.61c1.52.38,2.68,1.06,3.75,2.16.55.59,1.37,1.66,1.44,1.92.02.07-2.59,1.82-4.16,2.8-.06.04-.29-.21-.54-.59-.77-1.12-1.58-1.61-2.82-1.69-1.82-.13-2.99.83-2.98,2.41-.02.39.07.78.25,1.12.4.83,1.14,1.32,3.47,2.33,4.29,1.85,6.13,3.06,7.27,4.79,1.27,1.93,1.56,5.01.69,7.31-.95,2.49-3.31,4.18-6.63,4.74-1.03.18-3.46.16-4.56-.04-2.41-.43-4.69-1.62-6.1-3.18-.55-.61-1.63-2.2-1.56-2.31.03-.04.27-.19.55-.35.27-.15,1.28-.73,2.23-1.29l1.72-1,.36.53c.5.77,1.61,1.83,2.27,2.18,1.91,1.01,4.54.87,5.83-.29.53-.44.82-1.11.78-1.8,0-.69-.09-1-.45-1.52-.46-.66-1.42-1.22-4.12-2.4-3.09-1.33-4.42-2.16-5.64-3.47-.76-.87-1.32-1.89-1.65-3-.23-.85-.28-2.97-.1-3.82.64-2.99,2.89-5.07,6.14-5.69,1.06-.2,3.51-.13,4.55.13h0ZM64.26,60.11l.02,2.45h-7.8v22.16h-5.52v-22.16h-7.79v-2.41c0-1.33.03-2.45.07-2.47.03-.04,4.78-.06,10.53-.05l10.47.03.03,2.44h0Z"/>
</svg>