<?xml version="1.0" encoding="UTF-8"?>
<svg id="Ebene_1" xmlns="http://www.w3.org/2000/svg" version="1.1" viewBox="0 0 120 120">
  <!-- Generator: Adobe Illustrator 30.3.0, SVG Export Plug-In . SVG Version: 2.1.3 Build 182)  -->
  <defs>
    <style>
      .st0 {
        fill: #e8f3f0;
      }

      .st1 {
        fill: #303131;
      }
    </style>
  </defs>
  <rect class="st0" width="120" height="120"/>
  <path class="st1" d="M66.49,46.31l-5.13-9.82c-.26-.49-.77-.82-1.35-.82s-1.09.33-1.35.81h0s-22.54,40.4-22.54,40.4l30.38-30.57ZM84.49,80.77l-6.35-39.49c-.12-.73-.75-1.29-1.51-1.29-.43,0-.81.17-1.09.46h0l-40.05,40.32,22.16,12.49c.65.37,1.42.59,2.24.59s1.6-.22,2.26-.6h-.02s22.35-12.48,22.35-12.48h0ZM37.12,70.36l6.67-42.9c.11-.74.75-1.3,1.51-1.3.58,0,1.09.33,1.35.81h0s7.17,13.47,7.17,13.47l-16.71,29.93h0Z"/>
</svg>