<?xml version="1.0" encoding="UTF-8"?>
<svg id="Ebene_1" xmlns="http://www.w3.org/2000/svg" version="1.1" viewBox="0 0 120 120">
  <!-- Generator: Adobe Illustrator 30.3.0, SVG Export Plug-In . SVG Version: 2.1.3 Build 182)  -->
  <defs>
    <style>
      .st0 {
        fill: #e8f3f0;
      }

      .st1 {
        fill: #303131;
      }
    </style>
  </defs>
  <rect class="st0" width="120" height="120"/>
  <path class="st1" d="M30.59,60c0-4.13.86-8.22,2.53-12l14.06,38.46c-10.14-4.91-16.59-15.19-16.59-26.47M79.85,58.53c-.32,3.25-1.06,6.44-2.21,9.5l-2.94,9.79-10.65-31.52,3.35-.35c.67-.14,1.09-.8.95-1.46-.11-.54-.58-.94-1.13-.98,0,0-4.76.38-7.85.38l-7.73-.38c-.68.03-1.21.61-1.18,1.29.03.56.42,1.03.97,1.15l3.12.35,4.59,12.47-6.44,19.29-10.73-31.76,3.32-.35c.67-.1,1.14-.74,1.03-1.41-.08-.53-.5-.95-1.03-1.03,0,0-4.76.38-7.85.38h-2.03c8.9-13.58,27.13-17.38,40.72-8.47,1.31.86,2.56,1.83,3.72,2.89h-.38c-2.8.08-5.01,2.41-4.94,5.21.33,2.53,1.34,4.92,2.94,6.91,1.57,2.42,2.42,5.23,2.44,8.12M60.56,62.56l9.06,24.76.21.41c-5.82,2.06-12.14,2.23-18.06.47l8.82-25.64M85.82,45.88c7.63,14.01,2.7,31.54-11.12,39.52l9-25.97c1.43-3.32,2.2-6.88,2.26-10.5l-.21-2.94"/>
</svg>