<?xml version="1.0" encoding="UTF-8"?>
<svg id="Layer_1" xmlns="http://www.w3.org/2000/svg" xmlns:xodm="http://www.corel.com/coreldraw/odm/2003" version="1.1" viewBox="0 0 2834.6 743.2">
  <!-- Generator: Adobe Illustrator 30.3.0, SVG Export Plug-In . SVG Version: 2.1.3 Build 182)  -->
  <defs>
    <style>
      .st0 {
        fill: #ffd2ed;
      }
    </style>
  </defs>
  <rect class="st0" x="75.5" y="143.9" width="28.3" height="58.9" transform="translate(-72.4 64.6) rotate(-28.8)"/>
  <rect class="st0" x="153.9" y="98.2" width="42.1" height="20.2" transform="translate(-17.1 182.2) rotate(-52.8)"/>
  <rect class="st0" x="256.2" y="59.2" width="23.3" height="48.5" transform="translate(-1.3 162.6) rotate(-33.7)"/>
  <rect class="st0" x="218.1" y="166" width="42.1" height="20.2" transform="translate(-8.9 12.8) rotate(-3)"/>
  <rect class="st0" x="285.5" y="248" width="48.5" height="23.3" transform="translate(-92.4 300) rotate(-45.7)"/>
  <rect class="st0" x="385.7" y="293.4" width="41.3" height="19.8" transform="translate(-91.8 397.9) rotate(-47.5)"/>
  <rect class="st0" x="298.8" y="340.5" width="20.2" height="42.1" transform="translate(-160.5 285.6) rotate(-40.3)"/>
  <rect class="st0" x="522.2" y="98.3" width="42.1" height="20.2" transform="translate(128.5 475.6) rotate(-52.8)"/>
  <rect class="st0" x="624.7" y="59.4" width="23.3" height="48.5" transform="translate(60.5 367.1) rotate(-33.7)"/>
  <rect class="st0" x="701.2" y="88.1" width="41.3" height="19.8" transform="translate(-5.6 137) rotate(-10.8)"/>
  <rect class="st0" x="648.4" y="147.6" width="20.2" height="42.1" transform="translate(47.2 465.9) rotate(-40.3)"/>
  <rect class="st0" x="458" y="212.1" width="28.3" height="58.9" transform="translate(-58 257.3) rotate(-28.8)"/>
  <rect class="st0" x="394" y="198.9" width="42.1" height="20.2" transform="translate(-2.3 413.3) rotate(-52.8)"/>
  <rect class="st0" x="675.8" y="239.4" width="48.5" height="23.3" transform="translate(-.2 501.4) rotate(-39.4)"/>
  <rect class="st0" x="580.5" y="198.3" width="19.8" height="41.3" transform="translate(147.9 666.9) rotate(-65.7)"/>
  <rect class="st0" x="806" y="57.2" width="28.3" height="58.9" transform="translate(59.7 405.8) rotate(-28.8)"/>
  <rect class="st0" x="890.6" y="98.5" width="42.1" height="20.2" transform="translate(274 769.1) rotate(-52.8)"/>
  <rect class="st0" x="993.1" y="59.6" width="23.3" height="48.5" transform="translate(122.3 571.6) rotate(-33.7)"/>
  <rect class="st0" x="1068.8" y="87.6" width="41.3" height="19.8" transform="translate(281.5 834.9) rotate(-47.5)"/>
  <rect class="st0" x="1016.6" y="147.4" width="20.2" height="42.1" transform="translate(134.7 704) rotate(-40.3)"/>
  <rect class="st0" x="907" y="238.5" width="58.9" height="28.3" transform="translate(264 951.5) rotate(-61.2)"/>
  <rect class="st0" x="1039.3" y="312.8" width="19.8" height="41.3" transform="translate(50.4 796.4) rotate(-42.5)"/>
  <rect class="st0" x="792.6" y="157.6" width="20.2" height="42.1" transform="translate(75 561.5) rotate(-40.3)"/>
  <rect class="st0" x="1371" y="63.8" width="20.2" height="42.1" transform="translate(280.2 923) rotate(-40.8)"/>
  <rect class="st0" x="1437.8" y="124.8" width="42.1" height="20.2" transform="translate(263.4 981.8) rotate(-40.6)"/>
  <rect class="st0" x="1168.4" y="142.4" width="20.2" height="42.1" transform="translate(484.3 1129.7) rotate(-62.2)"/>
  <rect class="st0" x="1337.8" y="228.3" width="48.5" height="23.3" transform="translate(-11.2 403.9) rotate(-16.8)"/>
  <rect class="st0" x="1277.5" y="162.6" width="19.8" height="41.3" transform="translate(214.4 917.9) rotate(-42.5)"/>
  <rect class="st0" x="66" y="335.4" width="42.1" height="20.2" transform="translate(-240.7 205.9) rotate(-52.8)"/>
  <rect class="st0" x="187.4" y="281.6" width="23.3" height="48.5" transform="translate(-136.3 161.8) rotate(-33.7)"/>
  <rect class="st0" x="464.3" y="347.6" width="20.2" height="42.1" transform="translate(-126.4 361.8) rotate(-37.2)"/>
  <rect class="st0" x="630" y="320.2" width="41.3" height="19.8" transform="translate(-32.3 586.8) rotate(-47.5)"/>
  <rect class="st0" x="347.4" y="116" width="58.9" height="28.3" transform="translate(121.4 436.2) rotate(-69.2)"/>
  <rect class="st0" x="819.8" y="284.1" width="20.2" height="42.1" transform="translate(-15.6 563.8) rotate(-37.2)"/>
  <rect class="st0" x="1153.3" y="245" width="23.3" height="48.5" transform="translate(46.4 691.6) rotate(-33.7)"/>
  <rect class="st0" x="1252.4" y="297.5" width="58.9" height="28.3" transform="translate(120.8 937.8) rotate(-42)"/>
  <rect class="st0" x="1188.8" y="41.4" width="23.3" height="48.5" transform="translate(974.6 1246.5) rotate(-82.3)"/>
  <rect class="st0" x="1396.7" y="322.2" width="19.8" height="41.3" transform="translate(137.9 1040.4) rotate(-42.5)"/>
  <rect class="st0" x="1530.8" y="54.4" width="28.3" height="58.9" transform="translate(150.7 754.7) rotate(-28.8)"/>
  <rect class="st0" x="1717.6" y="56.2" width="23.3" height="48.5" transform="translate(246 973) rotate(-33.7)"/>
  <rect class="st0" x="1546.2" y="206.2" width="20.2" height="42.1" transform="translate(222.3 1060.5) rotate(-40.3)"/>
  <rect class="st0" x="1679.4" y="163" width="42.1" height="20.2" transform="translate(-6.7 89.2) rotate(-3)"/>
  <rect class="st0" x="1746.9" y="245" width="48.5" height="23.3" transform="translate(350.5 1345) rotate(-45.7)"/>
  <rect class="st0" x="1760.1" y="337.5" width="20.2" height="42.1" transform="translate(188.2 1230) rotate(-40.3)"/>
  <rect class="st0" x="1983.6" y="95.4" width="42.1" height="20.2" transform="translate(708.6 1638.4) rotate(-52.8)"/>
  <rect class="st0" x="2086" y="56.4" width="23.3" height="48.5" transform="translate(307.7 1177.4) rotate(-33.7)"/>
  <rect class="st0" x="2162.5" y="85.1" width="41.3" height="19.8" transform="translate(20.9 410.8) rotate(-10.8)"/>
  <rect class="st0" x="1919.4" y="209.1" width="28.3" height="58.9" transform="translate(124.2 961) rotate(-28.8)"/>
  <rect class="st0" x="1855.4" y="195.9" width="42.1" height="20.2" transform="translate(577.9 1576.1) rotate(-52.8)"/>
  <rect class="st0" x="2137.2" y="236.4" width="48.5" height="23.3" transform="translate(333.8 1428.3) rotate(-39.4)"/>
  <rect class="st0" x="2041.8" y="195.3" width="19.8" height="41.3" transform="translate(1010.6 1997) rotate(-65.7)"/>
  <rect class="st0" x="2342" y="349" width="42.1" height="20.2" transform="translate(560.8 1929.1) rotate(-49.7)"/>
  <rect class="st0" x="2267.3" y="54.3" width="28.3" height="58.9" transform="translate(241.9 1109.4) rotate(-28.8)"/>
  <rect class="st0" x="2352" y="95.5" width="42.1" height="20.2" transform="translate(854.2 1931.9) rotate(-52.8)"/>
  <rect class="st0" x="2530.2" y="84.7" width="41.3" height="19.8" transform="translate(757.8 1911.3) rotate(-47.5)"/>
  <rect class="st0" x="2477.9" y="144.4" width="20.2" height="42.1" transform="translate(483.4 1648.5) rotate(-40.3)"/>
  <rect class="st0" x="2368.3" y="235.5" width="58.9" height="28.3" transform="translate(1023.9 2230.5) rotate(-61.2)"/>
  <rect class="st0" x="2509.9" y="224.7" width="48.5" height="23.3" transform="translate(931.5 2213.5) rotate(-56.3)"/>
  <rect class="st0" x="2253.9" y="154.6" width="20.2" height="42.1" transform="translate(423.7 1506) rotate(-40.3)"/>
  <rect class="st0" x="2729" y="91" width="48.5" height="23.3" transform="translate(973.6 2206) rotate(-51.9)"/>
  <rect class="st0" x="2679.1" y="160.3" width="19.8" height="41.3" transform="translate(584.3 1864.2) rotate(-42.5)"/>
  <rect class="st0" x="1648.7" y="278.6" width="23.3" height="48.5" transform="translate(111 972.1) rotate(-33.7)"/>
  <rect class="st0" x="1925.6" y="344.6" width="20.2" height="42.1" transform="translate(172.8 1244.7) rotate(-37.2)"/>
  <rect class="st0" x="2091.3" y="317.2" width="41.3" height="19.8" transform="translate(444 1663.2) rotate(-47.5)"/>
  <rect class="st0" x="1808.7" y="113" width="58.9" height="28.3" transform="translate(1066.6 1800.4) rotate(-69.2)"/>
  <rect class="st0" x="2281.1" y="281.1" width="20.2" height="42.1" transform="translate(283.5 1446.7) rotate(-37.2)"/>
  <rect class="st0" x="2614.7" y="242" width="23.3" height="48.5" transform="translate(293.6 1501.9) rotate(-33.7)"/>
  <rect class="st0" x="2728.7" y="303.4" width="58.9" height="28.3" transform="translate(495.9 1927.1) rotate(-42)"/>
  <rect class="st0" x="2657.2" y="361.7" width="20.2" height="42.1" transform="translate(753 2279.3) rotate(-52.9)"/>
  <rect class="st0" x="2650.2" y="38.4" width="23.3" height="48.5" transform="translate(2243.1 2692.1) rotate(-82.3)"/>
  <rect class="st0" x="1532" y="355.1" width="58.9" height="28.3" transform="translate(154 1139.6) rotate(-42)"/>
  <rect class="st0" x="2378.4" y="671.4" width="42.1" height="20.2" transform="translate(327.8 2070.7) rotate(-49.7)"/>
  <rect class="st0" x="2272.4" y="470.7" width="42.1" height="20.2" transform="translate(523.9 2016.9) rotate(-52.8)"/>
  <rect class="st0" x="2490.8" y="379.1" width="23.3" height="48.5" transform="translate(196.7 1456.3) rotate(-33.7)"/>
  <rect class="st0" x="2598" y="505.2" width="20.2" height="42.1" transform="translate(278.6 1811.8) rotate(-40.3)"/>
  <rect class="st0" x="2396" y="474" width="58.9" height="28.3" transform="translate(829.3 2378.4) rotate(-61.2)"/>
  <rect class="st0" x="2192" y="361.9" width="20.2" height="42.1" transform="translate(216.5 1409.3) rotate(-37.2)"/>
  <rect class="st0" x="2231.4" y="593.6" width="20.2" height="42.1" transform="translate(134.4 1595.6) rotate(-40.3)"/>
  <rect class="st0" x="228.8" y="438.4" width="20.2" height="42.1" transform="translate(-240.5 263.6) rotate(-40.3)"/>
  <rect class="st0" x="436.5" y="489.6" width="48.5" height="23.3" transform="translate(-213.4 406.4) rotate(-39.4)"/>
  <rect class="st0" x="280.3" y="567.3" width="41.3" height="19.8" transform="translate(-328 409.1) rotate(-47.5)"/>
  <rect class="st0" x="603.3" y="421.6" width="20.2" height="42.1" transform="translate(-140.7 501.8) rotate(-40.3)"/>
  <rect class="st0" x="445" y="633.9" width="58.9" height="28.3" transform="translate(-321.9 751.6) rotate(-61.2)"/>
  <rect class="st0" x="175.4" y="536.6" width="28.3" height="58.9" transform="translate(-249.3 161.3) rotate(-28.8)"/>
  <rect class="st0" x="1455.4" y="239.9" width="28.3" height="58.9" transform="translate(52 741.3) rotate(-28.8)"/>
</svg>