<?xml version="1.0" encoding="UTF-8"?>
<svg id="Layer_1" xmlns="http://www.w3.org/2000/svg" xmlns:xodm="http://www.corel.com/coreldraw/odm/2003" version="1.1" viewBox="0 0 2834.6 743.2">
  <!-- Generator: Adobe Illustrator 30.3.0, SVG Export Plug-In . SVG Version: 2.1.3 Build 182)  -->
  <defs>
    <style>
      .st0 {
        fill: #fff;
      }
    </style>
  </defs>
  <rect class="st0" x="131.3" y="58.4" width="52" height="108.4" transform="translate(-34.8 89.7) rotate(-28.8)"/>
  <rect class="st0" x="286.5" y="133.5" width="77.5" height="37.1" transform="translate(7.5 319.3) rotate(-52.8)"/>
  <rect class="st0" x="474.7" y="61.3" width="42.8" height="89.3" transform="translate(24.7 293.5) rotate(-33.7)"/>
  <rect class="st0" x="159.5" y="337.9" width="37.1" height="77.5" transform="translate(-201.3 204.4) rotate(-40.3)"/>
  <rect class="st0" x="404.8" y="258.2" width="77.5" height="37.1" transform="translate(-14 23.7) rotate(-3)"/>
  <rect class="st0" x="528.7" y="409.4" width="89.3" height="42.8" transform="translate(-135.4 540) rotate(-45.7)"/>
  <rect class="st0" x="713.1" y="493.3" width="75.9" height="36.4" transform="translate(-133.7 719) rotate(-47.5)"/>
  <rect class="st0" x="553" y="579.5" width="37.1" height="77.5" transform="translate(-264.2 516.1) rotate(-40.3)"/>
  <rect class="st0" x="963.8" y="133.5" width="77.5" height="37.1" transform="translate(275.6 859) rotate(-52.8)"/>
  <rect class="st0" x="1152.1" y="61.3" width="42.8" height="89.3" transform="translate(138.9 669.8) rotate(-33.7)"/>
  <rect class="st0" x="1293.3" y="115.3" width="75.9" height="36.4" transform="translate(-1.5 251.5) rotate(-10.8)"/>
  <rect class="st0" x="1196.4" y="224.7" width="37.1" height="77.5" transform="translate(117.7 848) rotate(-40.3)"/>
  <rect class="st0" x="846" y="343.2" width="52" height="108.4" transform="translate(-83.6 469.1) rotate(-28.8)"/>
  <rect class="st0" x="728.1" y="318.4" width="77.5" height="37.1" transform="translate(35 744.4) rotate(-52.8)"/>
  <rect class="st0" x="1246.2" y="392.3" width="89.3" height="42.8" transform="translate(31.2 914.4) rotate(-39.4)"/>
  <rect class="st0" x="1070.6" y="317.1" width="36.4" height="75.9" transform="translate(317.8 1201.9) rotate(-65.7)"/>
  <rect class="st0" x="1623.1" y="599.7" width="77.5" height="37.1" transform="translate(115.8 1486.4) rotate(-49.7)"/>
  <rect class="st0" x="1486.1" y="58.4" width="52" height="108.4" transform="translate(132.7 742.2) rotate(-28.8)"/>
  <rect class="st0" x="1641.2" y="133.5" width="77.5" height="37.1" transform="translate(543.7 1398.8) rotate(-52.8)"/>
  <rect class="st0" x="1829.5" y="61.3" width="42.8" height="89.3" transform="translate(253 1046.1) rotate(-33.7)"/>
  <rect class="st0" x="1970.6" y="115.3" width="75.9" height="36.4" transform="translate(552.1 1523) rotate(-47.5)"/>
  <rect class="st0" x="1873.8" y="224.7" width="37.1" height="77.5" transform="translate(278.3 1285.9) rotate(-40.3)"/>
  <rect class="st0" x="1671.6" y="391.4" width="108.4" height="52" transform="translate(528.8 1728.8) rotate(-61.2)"/>
  <rect class="st0" x="1933.4" y="372.8" width="89.3" height="42.8" transform="translate(551.4 1820) rotate(-56.3)"/>
  <rect class="st0" x="1914.5" y="526.8" width="36.4" height="75.9" transform="translate(126.9 1455.6) rotate(-42.5)"/>
  <rect class="st0" x="1461.6" y="243.2" width="37.1" height="77.5" transform="translate(168.7 1023.8) rotate(-40.3)"/>
  <rect class="st0" x="2525.2" y="70" width="37.1" height="77.5" transform="translate(547.2 1688.8) rotate(-40.8)"/>
  <rect class="st0" x="2333.8" y="124.5" width="89.3" height="42.8" transform="translate(797.5 1928.9) rotate(-51.9)"/>
  <rect class="st0" x="2647.6" y="181.6" width="77.5" height="37.1" transform="translate(517 1797.2) rotate(-40.6)"/>
  <rect class="st0" x="2153" y="215.1" width="37.1" height="77.5" transform="translate(933.9 2056.1) rotate(-62.2)"/>
  <rect class="st0" x="2464.3" y="372.8" width="89.3" height="42.8" transform="translate(-6.8 742) rotate(-16.8)"/>
  <rect class="st0" x="2352.2" y="250.5" width="36.4" height="75.9" transform="translate(429 1678.8) rotate(-42.5)"/>
  <rect class="st0" x="2658.4" y="419.7" width="37.1" height="77.5" transform="translate(338.3 1839.3) rotate(-40.3)"/>
  <rect class="st0" x="125" y="569.6" width="77.5" height="37.1" transform="translate(-403.9 363.2) rotate(-52.8)"/>
  <rect class="st0" x="348.3" y="470.4" width="42.8" height="89.3" transform="translate(-223.8 292.2) rotate(-33.7)"/>
  <rect class="st0" x="857.5" y="592.8" width="37.1" height="77.5" transform="translate(-203.6 657.7) rotate(-37.2)"/>
  <rect class="st0" x="1162.8" y="542.9" width="75.9" height="36.4" transform="translate(-24.6 1066.3) rotate(-47.5)"/>
  <rect class="st0" x="642.1" y="166.1" width="108.4" height="52" transform="translate(269.8 775) rotate(-69.2)"/>
  <rect class="st0" x="1511.6" y="476.2" width="37.1" height="77.5" transform="translate(-.2 1029.2) rotate(-37.2)"/>
  <rect class="st0" x="2124.3" y="401.8" width="42.8" height="89.3" transform="translate(113.5 1267.3) rotate(-33.7)"/>
  <rect class="st0" x="2333.6" y="514.7" width="108.4" height="52" transform="translate(252.6 1738.5) rotate(-42)"/>
  <rect class="st0" x="2202.3" y="622.7" width="37.1" height="77.5" transform="translate(354.5 2034.9) rotate(-52.9)"/>
  <rect class="st0" x="2191.4" y="29.2" width="42.8" height="89.3" transform="translate(1842 2256.6) rotate(-82.3)"/>
  <rect class="st0" x="2571.6" y="543.7" width="36.4" height="75.9" transform="translate(288.5 1904.4) rotate(-42.5)"/>
</svg>