<?xml version="1.0" encoding="UTF-8"?>
<svg id="Ebene_1" xmlns="http://www.w3.org/2000/svg" version="1.1" viewBox="0 0 429 410">
  <!-- Generator: Adobe Illustrator 30.3.0, SVG Export Plug-In . SVG Version: 2.1.3 Build 182)  -->
  <defs>
    <style>
      .st0 {
        fill: #f0ea6e;
        isolation: isolate;
        opacity: .05;
      }
    </style>
  </defs>
  <path class="st0" d="M30.31,227.82c-15.01-11.48-23.73-26.65-26.16-45.5-2.43-18.85,1.92-36.07,13.06-51.66,1.72-2.24,3.56-4.39,5.52-6.44,1.97-2.05,4.06-4.01,6.27-5.87L156.65,16.82C170.45,6.03,185.92.58,203.07.46c17.14-.12,32.6,5.08,46.35,15.6l146.33,111.95c13.76,10.53,22.82,24.08,27.19,40.66,4.37,16.58,3.15,32.94-3.64,49.08l-64.6,149.75c-1.22,2.63-2.54,5.27-3.98,7.92-1.44,2.65-3.01,5.1-4.73,7.35-11.63,15.21-26.94,23.94-45.93,26.21-18.99,2.27-36.11-2.43-51.37-14.11-10.51-8.04-18.16-18.24-22.97-30.62-4.81-12.37-5.84-25.02-3.1-37.94l6.09-29.73c.66-3.45.21-6.75-1.34-9.91-1.55-3.16-3.7-5.79-6.45-7.9l-71.29-54.54c-2.75-2.1-5.85-3.49-9.31-4.16-3.45-.67-6.76-.23-9.92,1.3l-27.1,13.65c-11.75,6.03-24.22,8.34-37.43,6.93-13.2-1.4-25.05-6.13-35.56-14.16ZM54.32,198.77c4.75,3.64,10.02,5.69,15.81,6.16,5.78.47,11.3-.64,16.54-3.35l26.81-13.28c9.66-4.86,19.79-6.69,30.38-5.5,10.59,1.19,20.14,5.03,28.64,11.54l71.29,54.54c8.51,6.51,14.67,14.78,18.49,24.81,3.82,10.04,4.87,20.33,3.15,30.87l-5.8,29.35c-1.24,5.77-.88,11.38,1.09,16.84,1.97,5.46,5.33,10.01,10.08,13.64,7,5.36,14.77,7.64,23.3,6.86,8.53-.78,15.59-4.57,21.18-11.36-.19.25,1.37-2.31,4.68-7.68l64.32-149.38c3.4-8.07,4.09-16.23,2.08-24.49-2.01-8.26-6.52-15.06-13.52-20.42L226.53,45.98c-7-5.36-14.82-7.98-23.44-7.85-8.62.12-16.25,2.98-22.9,8.56l-127.35,101.15c-1.64,1.11-3.61,3.17-5.9,6.16-5.34,6.98-7.26,14.8-5.75,23.46,1.5,8.66,5.88,15.76,13.14,21.31ZM265,193.96c4.25,3.25,8.91,4.55,13.98,3.88,5.07-.67,9.23-3.12,12.47-7.35,3.24-4.24,4.52-8.89,3.84-13.96-.68-5.07-3.15-9.23-7.4-12.48-4.25-3.25-8.91-4.55-13.98-3.88-5.07.67-9.23,3.12-12.47,7.36-3.24,4.24-4.52,8.89-3.84,13.96.68,5.07,3.15,9.23,7.4,12.48ZM317.9,187.01c4.25,3.25,8.91,4.55,13.98,3.88,5.07-.67,9.23-3.12,12.47-7.36,3.24-4.24,4.52-8.89,3.84-13.96-.68-5.07-3.15-9.23-7.4-12.48s-8.91-4.55-13.98-3.88-9.23,3.12-12.47,7.36c-3.24,4.24-4.52,8.89-3.84,13.96.68,5.07,3.15,9.23,7.4,12.48ZM272.13,246.84c4.25,3.25,8.91,4.55,13.98,3.88,5.07-.67,9.22-3.12,12.47-7.35,3.24-4.24,4.52-8.89,3.84-13.96-.68-5.07-3.15-9.23-7.4-12.48-4.25-3.25-8.91-4.55-13.98-3.88-5.07.67-9.23,3.12-12.47,7.36-3.24,4.24-4.52,8.89-3.84,13.96.68,5.07,3.15,9.23,7.4,12.48ZM325.03,239.89c4.25,3.25,8.91,4.55,13.98,3.88,5.07-.67,9.23-3.12,12.47-7.36,3.24-4.24,4.52-8.89,3.84-13.96-.68-5.07-3.15-9.23-7.4-12.48-4.25-3.25-8.91-4.55-13.98-3.88-5.07.67-9.23,3.12-12.47,7.36-3.24,4.24-4.52,8.89-3.84,13.96.68,5.07,3.15,9.23,7.4,12.48ZM172.79,158.99c3.25,2.49,6.75,3.49,10.5,2.99,3.75-.49,6.86-2.36,9.34-5.6l11.44-14.96,15.01,11.48c3.25,2.49,6.75,3.49,10.5,2.99,3.75-.49,6.86-2.36,9.34-5.6,2.48-3.24,3.47-6.73,2.96-10.48-.5-3.74-2.38-6.86-5.63-9.35l-15.01-11.48,11.44-14.96c2.48-3.24,3.47-6.73,2.96-10.48-.5-3.75-2.38-6.86-5.63-9.35-3.25-2.49-6.75-3.49-10.5-2.99-3.75.49-6.86,2.36-9.34,5.6l-11.44,14.96-15.01-11.48c-3.25-2.49-6.75-3.49-10.5-2.99-3.75.49-6.86,2.36-9.34,5.6-2.48,3.24-3.47,6.73-2.96,10.48.51,3.75,2.38,6.86,5.63,9.35l15.01,11.48-11.44,14.96c-2.48,3.24-3.47,6.73-2.96,10.48.5,3.74,2.38,6.86,5.64,9.35Z"/>
</svg>