<?xml version="1.0" encoding="UTF-8"?>
<svg id="Ebene_1" xmlns="http://www.w3.org/2000/svg" version="1.1" viewBox="0 0 105 120">
  <!-- Generator: Adobe Illustrator 30.3.0, SVG Export Plug-In . SVG Version: 2.1.3 Build 182)  -->
  <defs>
    <style>
      .st0 {
        fill: #ff9727;
      }

      .st1 {
        fill: #f6f6f6;
      }

      .st2 {
        fill: #fff;
      }

      .st3 {
        fill: #66cfbc;
      }
    </style>
  </defs>
  <rect class="st1" width="105" height="120" rx="12" ry="12"/>
  <g>
    <polygon class="st0" points="74.43 49.55 69.59 49.55 69.59 44.37 67.35 44.37 67.35 41.79 38.52 41.79 38.52 44.37 36.27 44.37 36.27 49.55 30.57 49.55 30.57 70.62 36.27 70.62 36.27 80.11 40.07 80.11 40.07 84.08 49.39 84.08 49.39 80.11 58.02 80.11 58.02 83.57 67.17 83.57 67.17 80.11 69.59 80.11 69.59 70.62 74.43 70.62 74.43 49.55"/>
    <polygon class="st3" points="49.05 49.38 51.64 49.3 51.55 44.37 56.73 44.37 56.64 36 51.9 35.92 51.98 41.53 49.13 41.53 49.05 36.52 35.93 36.52 35.84 41.79 41.11 41.79 41.11 43.86 41.02 45.58 48.96 45.5 49.05 49.38"/>
    <rect class="st2" x="36.53" y="54.65" width="4.49" height="7.86"/>
    <rect class="st2" x="41.62" y="50.24" width="2.37" height="4.14"/>
  </g>
</svg>