<?xml version="1.0" encoding="UTF-8"?>
<svg id="Ebene_1" xmlns="http://www.w3.org/2000/svg" version="1.1" viewBox="0 0 105 120">
  <!-- Generator: Adobe Illustrator 30.3.0, SVG Export Plug-In . SVG Version: 2.1.3 Build 182)  -->
  <defs>
    <style>
      .st0 {
        fill: #f48fb7;
      }

      .st1 {
        fill: #f6f6f6;
      }

      .st2 {
        fill: #b0e6d9;
      }

      .st3 {
        fill: #fff;
      }
    </style>
  </defs>
  <rect class="st1" width="105" height="120" rx="12" ry="12"/>
  <g>
    <polygon class="st0" points="75.45 50.45 70.07 50.45 70.07 44.36 35.29 44.36 35.29 50.45 29.55 50.45 29.55 64.08 35.29 64.08 35.29 71.25 41.03 71.25 41.03 78.42 47.84 78.42 47.84 85.23 58.59 85.23 58.59 78.42 66.84 78.42 66.84 71.25 70.07 71.25 70.07 64.08 75.45 64.08 75.45 50.45"/>
    <polygon class="st2" points="67.96 41.76 55.32 41.76 55.32 34.77 51.29 34.77 51.29 41.76 38.38 41.76 38.38 46.87 44.97 46.87 44.97 49.56 61.11 49.56 61.11 46.87 67.96 46.87 67.96 41.76"/>
    <rect class="st3" x="46.92" y="58.54" width="4.75" height="5.09"/>
    <rect class="st3" x="60.23" y="63.92" width="4.75" height="5.09"/>
    <rect class="st3" x="55.66" y="72.26" width="4.75" height="5.09"/>
    <rect class="st3" x="64.4" y="55.18" width="2.49" height="2.66"/>
    <rect class="st3" x="48" y="68.9" width="2.62" height="2.81"/>
    <rect class="st3" x="38.18" y="55.18" width="3.28" height="3.52"/>
  </g>
</svg>