<?xml version="1.0" encoding="UTF-8"?>
<svg id="Ebene_1" xmlns="http://www.w3.org/2000/svg" version="1.1" viewBox="0 0 105 120">
  <!-- Generator: Adobe Illustrator 30.3.0, SVG Export Plug-In . SVG Version: 2.1.3 Build 182)  -->
  <defs>
    <style>
      .st0 {
        fill: #f6f6f6;
      }

      .st1 {
        fill: #ed1b76;
      }
    </style>
  </defs>
  <rect class="st0" width="105" height="120" rx="12" ry="12"/>
  <path class="st1" d="M78.37,82.64v-6.47h-6.47v6.47h6.47ZM71.91,76.17v-6.47h-6.47v6.47h6.47ZM78.37,63.23v-12.94h-6.47v-6.47h-6.47v-6.47h-25.87v6.47h-6.47v6.47h-6.47v12.94h12.94v6.47h6.47v6.47h12.94v-6.47h6.47v-6.47h12.94ZM46.03,56.77h-6.47v-6.47h6.47v6.47ZM58.97,56.77v-6.47h6.47v6.47h-6.47ZM26.63,82.64h6.47v-6.47h-6.47v6.47ZM33.09,76.17h6.47v-6.47h-6.47v6.47Z"/>
</svg>