<?xml version="1.0" encoding="UTF-8"?>
<svg id="Ebene_1" xmlns="http://www.w3.org/2000/svg" version="1.1" viewBox="0 0 105 120">
  <!-- Generator: Adobe Illustrator 30.3.0, SVG Export Plug-In . SVG Version: 2.1.3 Build 182)  -->
  <defs>
    <style>
      .st0 {
        fill: #f6f6f6;
      }

      .st1 {
        fill: #a5b6a3;
      }
    </style>
  </defs>
  <rect class="st0" width="105" height="120" rx="12" ry="12"/>
  <path class="st1" d="M72.4,86.54h6.63v-6.63h-6.63v6.63ZM25.96,86.54h6.63v-6.63h-6.63v6.63ZM39.23,86.54h6.63v-6.63h-6.63v6.63ZM59.13,86.54h6.63v-6.63h-6.63v6.63ZM72.4,53.37v-6.63h-6.63v-6.63h-6.63v-6.63h-13.27v6.63h-6.63v6.63h-6.63v6.63h-6.63v13.27h13.27v6.63h6.63v-6.63h13.27v6.63h6.63v-6.63h13.27v-13.27h-6.63ZM45.87,60h-6.63v-6.63h6.63v6.63ZM65.77,60h-6.63v-6.63h6.63v6.63ZM72.4,79.9v-6.63h-6.63v6.63h6.63ZM45.87,79.9h13.27v-6.63h-13.27v6.63ZM32.6,79.9h6.63v-6.63h-6.63v6.63Z"/>
</svg>