<?xml version="1.0" encoding="UTF-8"?>
<svg id="Ebene_1" xmlns="http://www.w3.org/2000/svg" xmlns:xlink="http://www.w3.org/1999/xlink" version="1.1" viewBox="0 0 460 412">
  <!-- Generator: Adobe Illustrator 30.3.0, SVG Export Plug-In . SVG Version: 2.1.3 Build 182)  -->
  <defs>
    <style>
      .st0, .st1 {
        fill: none;
      }

      .st2 {
        fill: #ff9727;
      }

      .st3 {
        fill: url(#Unbenannter_Verlauf);
      }

      .st4 {
        fill: url(#Unbenannter_Verlauf_2);
      }

      .st5 {
        fill: #f6f6f6;
      }

      .st1 {
        stroke: #ed1b76;
      }

      .st6 {
        fill: #fff;
      }

      .st7 {
        fill: #ffc0e6;
        fill-opacity: .2;
      }

      .st8 {
        fill: #3ac1ff;
      }

      .st9 {
        fill: #ed1b76;
      }

      .st10 {
        fill: #66cfbc;
      }
    </style>
    <linearGradient id="Unbenannter_Verlauf" data-name="Unbenannter Verlauf" x1="358.07" y1="-293.89" x2="-27.93" y2="121.71" gradientTransform="translate(0 362)" gradientUnits="userSpaceOnUse">
      <stop offset="0" stop-color="#294f60"/>
      <stop offset="1" stop-color="#2086b4"/>
    </linearGradient>
    <linearGradient id="Unbenannter_Verlauf_2" data-name="Unbenannter Verlauf 2" x1="629.14" y1="-396.81" x2="903.52" y2="-68.75" gradientTransform="translate(870.68 518.81) rotate(-180) scale(1 -1)" gradientUnits="userSpaceOnUse">
      <stop offset="0" stop-color="#ed1b76"/>
      <stop offset=".92" stop-color="#0a2835"/>
    </linearGradient>
  </defs>
  <rect class="st3" width="460" height="412" rx="16" ry="16"/>
  <rect class="st7" x="15" y="17" width="430" height="37" rx="8" ry="8" shape-rendering="crispEdges"/>
  <rect class="st6" x="35" y="25" width="78" height="21" rx="4" ry="4"/>
  <path class="st2" d="M44.25,41.5c-.34,0-.64-.12-.88-.35s-.37-.52-.37-.85v-1.18c0-.2.05-.39.14-.56.09-.17.22-.32.38-.44.72-.56,1.26-1.12,1.62-1.69s.61-1.08.76-1.53h-1.02c-.18,0-.33-.06-.45-.17-.12-.12-.18-.26-.18-.43s.06-.31.18-.43.27-.17.45-.17h.78c-.15-.22-.26-.46-.34-.71s-.12-.51-.12-.79c0-.75.27-1.39.82-1.91s1.21-.79,1.99-.79,1.45.26,1.99.79c.55.52.82,1.16.82,1.91,0,.28-.04.54-.12.79s-.2.49-.34.71h.78c.18,0,.33.06.45.17.12.11.18.26.18.43s-.06.31-.18.43c-.12.11-.27.17-.45.17h-1.02c.15.45.4.96.76,1.53.36.57.9,1.13,1.62,1.69.16.12.28.26.38.44.09.17.14.35.14.56v1.18c0,.33-.12.61-.37.85s-.54.35-.88.35h-7.52ZM44.25,40.3h7.5v-1.2c-.96-.72-1.65-1.46-2.08-2.23s-.71-1.42-.86-1.97h-1.62c-.15.55-.43,1.21-.86,1.97-.43.76-1.12,1.51-2.08,2.23v1.2ZM48,33.7c.44,0,.81-.15,1.11-.44.3-.29.45-.65.45-1.06s-.15-.78-.45-1.07c-.3-.29-.67-.43-1.11-.43s-.81.14-1.11.43-.45.65-.45,1.07.15.77.45,1.06.67.44,1.11.44Z"/>
  <path class="st2" d="M59.75,39c-.25,0-.48-.06-.69-.19-.21-.13-.37-.29-.5-.5s-.19-.44-.19-.69v-4.44c0-.26.06-.49.19-.7.13-.21.29-.37.5-.49.21-.13.44-.19.69-.19h4.61v1.31h-4.56s-.06,0-.09.04c-.02.02-.03.05-.03.08v1.31s0,.06.03.09c.03.02.06.03.09.03h4.32c.25,0,.48.06.69.19.21.12.38.29.5.5.13.21.19.44.19.69v1.58c0,.25-.06.48-.19.69-.13.21-.29.37-.5.5s-.44.19-.69.19c0,0-4.37,0-4.37,0ZM59.8,37.69h4.27s.06,0,.08-.03c.03-.03.04-.06.04-.09v-1.47s-.01-.06-.04-.08c-.02-.03-.05-.04-.08-.04h-4.39v1.59s0,.06.03.09c.03.02.06.03.09.03Z"/>
  <path class="st8" d="M83.25,41.5c-.34,0-.64-.12-.88-.35-.24-.24-.37-.52-.37-.85v-1.18c0-.2.05-.39.14-.56.09-.17.22-.32.38-.44.72-.56,1.26-1.12,1.62-1.69s.61-1.08.76-1.53h-1.02c-.18,0-.33-.06-.45-.17-.12-.12-.18-.26-.18-.43s.06-.31.18-.43.27-.17.45-.17h.78c-.15-.22-.26-.46-.34-.71s-.12-.51-.12-.79c0-.75.27-1.39.82-1.91s1.21-.79,1.99-.79,1.45.26,1.99.79c.55.52.82,1.16.82,1.91,0,.28-.04.54-.12.79s-.2.49-.34.71h.78c.18,0,.33.06.45.17.12.11.18.26.18.43s-.06.31-.18.43c-.12.11-.27.17-.45.17h-1.02c.15.45.4.96.76,1.53s.9,1.13,1.62,1.69c.16.12.28.26.38.44.09.17.14.35.14.56v1.18c0,.33-.12.61-.37.85-.24.24-.54.35-.88.35h-7.52ZM83.25,40.3h7.5v-1.2c-.96-.72-1.65-1.46-2.08-2.23s-.71-1.42-.86-1.97h-1.62c-.15.55-.43,1.21-.86,1.97-.43.76-1.12,1.51-2.08,2.23,0,0,0,1.2,0,1.2ZM87,33.7c.44,0,.81-.15,1.11-.44s.45-.65.45-1.06-.15-.78-.45-1.07c-.3-.29-.67-.43-1.11-.43s-.81.14-1.11.43-.45.65-.45,1.07.15.77.45,1.06.67.44,1.11.44Z"/>
  <path class="st8" d="M97.27,39v-2.76c0-.26.06-.49.19-.7.13-.21.29-.37.5-.49.21-.13.44-.19.69-.19h4.32s.06,0,.08-.03c.03-.03.04-.06.04-.09v-1.51s-.01-.06-.04-.08c-.02-.03-.05-.04-.08-.04h-4.27s-.06,0-.09.04c-.02.02-.03.05-.03.08v.49h-1.31v-.54c0-.26.06-.49.19-.7.13-.21.29-.37.5-.49.21-.13.44-.19.69-.19h4.37c.25,0,.48.06.69.19.21.12.38.28.5.49.13.21.19.44.19.7v1.62c0,.25-.06.48-.19.69-.12.21-.29.37-.5.5s-.44.19-.69.19h-4.32s-.06,0-.09.04c-.02.02-.03.05-.03.08v1.27s.01.06.03.09c.03.02.06.03.09.03h5.7v1.31h-7.13Z"/>
  <path class="st6" d="M178.06,38.5c-.2,0-.39-.05-.56-.15-.16-.1-.3-.23-.4-.4-.1-.17-.15-.36-.15-.56v-3.54c0-.2.05-.39.15-.55.1-.17.24-.31.4-.41.17-.1.36-.15.56-.15h4.63v1.06h-4.41c-.08,0-.15.02-.21.07-.05.05-.07.12-.07.21v3.07c0,.09.02.15.07.21.05.05.12.07.21.07h4.41v1.06h-4.63ZM185.17,38.5c-.2,0-.39-.05-.56-.15-.17-.1-.3-.23-.4-.4-.1-.17-.14-.35-.14-.55v-3.54h1.05v3.5s0,.05.02.07.04.02.07.02h2.42s.05,0,.06-.02c.02-.02.03-.05.03-.07v-3.5h1.05v3.54c0,.2-.05.39-.15.55-.1.17-.23.3-.39.4-.16.1-.35.15-.56.15h-2.5ZM190.18,38.5v-3.54c0-.2.05-.39.15-.55.1-.17.23-.3.4-.4.17-.1.35-.15.55-.15h2.58v1.05h-2.54s-.05,0-.07.03-.02.04-.02.06v3.5h-1.05,0ZM194.92,38.5v-3.54c0-.2.05-.39.15-.55.1-.17.24-.3.4-.4.17-.1.35-.15.55-.15h2.58v1.05h-2.54s-.05,0-.07.03-.02.04-.02.06v3.5h-1.05,0ZM200.81,38.5c-.2,0-.39-.05-.55-.15-.17-.1-.3-.23-.4-.4-.1-.17-.15-.35-.15-.55v-2.43c0-.2.05-.39.15-.55.1-.17.23-.3.4-.4.16-.1.35-.15.55-.15h2.5c.2,0,.39.05.55.15.17.1.3.23.4.4.1.17.15.35.15.55v1.74h-3.66v.65s0,.05.02.07.05.02.07.02h3.57v1.05h-3.61,0ZM200.75,35.76h2.62v-.76s0-.05-.03-.06c-.02-.02-.04-.03-.06-.03h-2.42s-.05,0-.07.03-.02.04-.02.06v.76h-.02ZM205.83,38.5v-4.64h3.61c.2,0,.39.05.55.15.17.1.3.23.4.4.1.17.15.35.15.55v3.54h-1.05v-3.5s0-.05-.03-.06c-.02-.02-.04-.03-.06-.03h-2.42s-.05,0-.07.03-.02.04-.02.06v3.5h-1.06ZM213.05,38.5c-.2,0-.39-.05-.55-.15s-.3-.23-.4-.4c-.1-.17-.15-.35-.15-.55v-4.96h1.05v1.42h1.81v1.05h-1.81v2.45s0,.05.02.07.04.02.07.02h1.71v1.05h-1.75ZM219.03,40.34v-6.48h3.61c.2,0,.39.05.55.15.17.1.3.23.4.4.1.17.15.35.15.55v2.43c0,.2-.05.39-.15.55-.1.17-.23.3-.4.4-.16.1-.35.15-.55.15h-2.56v1.84h-1.05ZM220.17,37.45h2.42s.05,0,.06-.02c.02-.02.03-.05.03-.07v-2.35s0-.05-.03-.06c-.02-.02-.04-.03-.06-.03h-2.42s-.05,0-.07.03-.02.04-.02.06v2.35s0,.05.02.07.05.02.07.02ZM225.99,38.5c-.2,0-.39-.05-.55-.15-.17-.1-.3-.23-.4-.4-.1-.17-.15-.35-.15-.55v-5.06h1.06v5.02s0,.05.02.07.04.02.07.02h.89v1.05h-.94ZM229.2,38.5c-.2,0-.39-.05-.56-.15-.16-.1-.3-.23-.4-.4-.1-.17-.14-.35-.14-.55v-1.74h3.66v-.65s0-.05-.03-.06c-.02-.02-.04-.03-.06-.03h-3.57v-1.05h3.61c.2,0,.39.05.55.15.17.1.3.23.4.4.1.17.15.35.15.55v3.54h-3.61ZM229.24,37.45h2.52v-.86h-2.62v.76s0,.05.02.07.04.02.07.02h0ZM234.9,40.22v-1.06h2.79s.05,0,.06-.03c.02-.02.03-.04.03-.06v-.57h-2.56c-.2,0-.38-.05-.55-.15-.17-.1-.3-.23-.4-.4-.1-.17-.15-.35-.15-.55v-3.52h1.05v3.48s0,.05.02.07.04.02.07.02h2.42s.05,0,.06-.02c.02-.02.03-.05.03-.07v-3.48h1.05v5.24c0,.2-.05.39-.14.55-.1.17-.23.3-.4.4-.17.1-.35.15-.55.15h-2.84,0ZM241.15,38.5c-.2,0-.39-.05-.55-.15-.17-.1-.3-.23-.4-.4-.1-.17-.15-.35-.15-.55v-2.43c0-.2.05-.39.15-.55.1-.17.24-.3.4-.4.16-.1.35-.15.55-.15h2.5c.2,0,.39.05.55.15.17.1.3.23.4.4.1.17.15.35.15.55v1.74h-3.66v.65s0,.05.02.07.05.02.07.02h3.57v1.05h-3.61,0ZM241.1,35.76h2.62v-.76s0-.05-.03-.06c-.02-.02-.04-.03-.06-.03h-2.42s-.05,0-.07.03-.02.04-.02.06v.76h-.02ZM246.11,38.5v-3.54c0-.2.05-.39.15-.55.1-.17.24-.3.4-.4.17-.1.35-.15.55-.15h2.58v1.05h-2.54s-.05,0-.07.03-.02.04-.02.06v3.5h-1.05,0ZM250.87,34.89v-1.05h1.05v1.05h-1.05ZM250.87,38.5v-1.05h1.05v1.05h-1.05Z"/>
  <rect class="st8" x="257.5" y="27.5" width="16" height="16" rx="3" ry="3"/>
  <path class="st6" d="M261.97,41.5c-.32,0-.6-.12-.83-.35-.23-.23-.35-.52-.35-.85v-1.18c0-.2.04-.38.13-.55s.21-.31.35-.43c.68-.56,1.19-1.12,1.52-1.69.34-.57.58-1.08.71-1.53h-.96c-.17,0-.31-.06-.42-.17-.11-.11-.17-.26-.17-.43s.06-.31.17-.43c.11-.11.25-.17.42-.17h.74c-.14-.22-.25-.45-.32-.7-.08-.25-.12-.51-.12-.79,0-.75.26-1.39.77-1.91.51-.52,1.14-.79,1.88-.79s1.36.26,1.88.79c.52.52.77,1.16.77,1.91,0,.28-.04.54-.12.79s-.19.48-.32.7h.74c.17,0,.31.06.42.17.11.11.17.26.17.43s-.06.31-.17.43c-.11.11-.25.17-.42.17h-.96c.14.45.38.96.71,1.53.34.57.85,1.13,1.52,1.69.15.12.26.26.35.43s.13.35.13.55v1.18c0,.33-.12.61-.35.85-.23.23-.51.35-.83.35h-7.07.03ZM261.97,40.3h7.07v-1.2c-.9-.72-1.56-1.46-1.96-2.23-.4-.76-.67-1.42-.81-1.97h-1.53c-.14.55-.41,1.21-.81,1.97-.4.76-1.06,1.51-1.96,2.23v1.2h0ZM265.5,33.7c.41,0,.76-.14,1.05-.43.29-.29.43-.64.43-1.06s-.14-.77-.43-1.06c-.28-.29-.63-.43-1.05-.43s-.76.14-1.05.43c-.29.29-.43.64-.43,1.06s.14.77.43,1.06c.28.29.63.43,1.05.43Z"/>
  <rect class="st1" x="337.5" y="26" width="87" height="19" rx="4" ry="4"/>
  <path class="st9" d="M355.08,36h-5.58c-.14,0-.26-.05-.36-.14-.1-.1-.14-.21-.14-.36s.05-.26.14-.36c.1-.1.21-.14.36-.14h5.58l-.43-.42c-.1-.1-.15-.22-.14-.35,0-.13.05-.25.14-.35.1-.1.22-.15.36-.16.14,0,.26.04.36.14l1.29,1.29c.1.1.15.22.15.35s-.05.25-.15.35l-1.29,1.29c-.1.1-.22.15-.36.14-.14,0-.26-.06-.36-.16-.09-.1-.14-.22-.14-.35s.04-.25.14-.35c0,0,.43-.42.43-.42ZM352.5,33.5v-1.5h-5v7h5v-1.5c0-.14.05-.26.14-.36.1-.1.21-.14.36-.14s.26.05.36.14c.1.1.14.21.14.36v1.5c0,.28-.1.51-.29.71-.2.2-.43.29-.71.29h-5c-.27,0-.51-.1-.71-.29-.2-.2-.29-.43-.29-.71v-7c0-.27.1-.51.29-.71.2-.2.43-.29.71-.29h5c.27,0,.51.1.71.29.2.2.29.43.29.71v1.5c0,.14-.05.26-.14.36-.1.1-.21.14-.36.14s-.26-.05-.36-.14c-.1-.1-.14-.21-.14-.36Z"/>
  <path class="st6" d="M367.5,38.5s.09-.05.14-.14c.05-.09.07-.25.07-.46v-4.8c0-.21-.02-.36-.07-.45-.05-.09-.09-.14-.14-.15h5.84v.3l.2,1.16c-.17-.07-.46-.15-.88-.23-.42-.09-.93-.13-1.52-.13h-1.48c-.2,0-.32.02-.36.05-.03.03-.05.11-.05.25v.74c0,.15.02.23.05.26.04.03.16.04.35.04h1.44c.39,0,.7-.02.93-.06.24-.05.4-.09.47-.14-.03.13-.06.27-.09.44s-.06.33-.08.48c-.02.15-.03.28-.03.38h-2.64c-.19,0-.31,0-.35.04-.03.02-.05.11-.05.26v.74c0,.15.02.24.05.27s.15.04.35.04h2.7c.39,0,.7-.04.93-.13.24-.09.4-.18.47-.27l-.2,1.2v.31h-6.05ZM373.87,38.5c.06,0,.16-.05.3-.14.14-.09.3-.24.48-.45.13-.15.28-.33.45-.54s.35-.43.52-.65c.18-.22.33-.41.46-.57-.11-.12-.23-.26-.36-.41-.13-.15-.27-.31-.41-.47-.13-.16-.27-.31-.4-.45-.13-.15-.24-.27-.33-.38-.2-.23-.36-.39-.48-.48s-.2-.14-.23-.14h2.16s-.06.06-.05.15c.02.09.11.25.26.47.07.09.14.2.23.32s.17.24.26.36.16.22.22.31h.02c.05-.08.12-.18.19-.29.08-.11.16-.23.25-.36s.17-.25.24-.36c.14-.22.22-.37.23-.46.02-.09.01-.14-.03-.14h2.19c-.06,0-.16.05-.29.14s-.29.24-.48.45c-.13.15-.28.33-.47.54-.18.21-.36.42-.54.63-.18.21-.34.4-.48.57.17.19.35.39.52.58.17.19.34.38.51.57s.35.39.52.58c.2.23.36.39.48.48.13.09.21.14.24.14h-2.16s.06-.05.05-.14-.1-.25-.25-.48c-.07-.11-.15-.22-.24-.35-.09-.13-.19-.25-.28-.38s-.17-.23-.24-.32h-.02c-.05.09-.12.19-.2.32-.07.13-.15.26-.24.39-.08.13-.16.25-.23.36-.15.22-.23.38-.25.47s0,.13.04.13c0,0-2.16,0-2.16,0ZM380.41,38.5s.09-.05.14-.14c.05-.09.07-.25.07-.46v-3.48c0-.21-.02-.37-.07-.46-.04-.09-.08-.14-.13-.14h1.62v4.08c0,.21.02.37.06.46.05.09.09.14.14.14h-1.83ZM381.22,33.06c-.25,0-.44-.07-.59-.2s-.22-.32-.22-.55.07-.42.21-.55c.15-.13.35-.2.6-.2s.45.07.59.2c.15.13.22.32.22.55s-.07.42-.22.55c-.14.13-.34.2-.59.2ZM385.11,38.6c-.46,0-.79-.1-1-.29-.21-.2-.31-.52-.31-.97v-2.52h-.9v-1c.31,0,.55-.04.72-.11.17-.08.3-.22.37-.41s.11-.46.11-.81h1.12v1.33h1.71c-.05.13-.09.3-.14.5-.04.19-.06.36-.06.5h-1.51v1.97c0,.31.02.52.07.63.05.11.16.17.33.17.11,0,.24-.04.37-.12.14-.08.27-.18.4-.29.13-.12.24-.23.33-.34v.31l.1.97c-.08.07-.2.14-.36.22-.16.07-.36.13-.59.18s-.48.08-.76.08h0ZM392.28,40.94c-.39,0-.74-.03-1.07-.08-.32-.05-.6-.12-.84-.2-.23-.07-.41-.15-.54-.22l.2-1.5v-.29c.09.18.24.37.44.57s.45.37.75.51.64.21,1.02.21c.25,0,.45-.05.62-.16.17-.1.29-.26.38-.47.09-.21.13-.48.13-.79v-.16l.02-.18-.02-.02c-.09.1-.22.18-.38.25-.15.06-.32.11-.51.14-.18.03-.36.05-.54.05-.54,0-.97-.11-1.3-.32-.32-.21-.55-.5-.7-.87-.14-.37-.21-.78-.21-1.24s.07-.88.21-1.25c.14-.37.37-.66.69-.87.33-.22.76-.33,1.31-.33.19,0,.37,0,.55.04.18.03.35.07.5.12s.28.11.38.2h.02l-.02-.2v-.06h1.62s-.09.06-.14.15c-.04.09-.06.25-.06.47v3.83c0,.97-.21,1.65-.62,2.06s-1.04.61-1.89.61h0ZM392.21,37.59c.23,0,.44-.04.61-.12.17-.08.31-.22.4-.43.1-.21.15-.5.15-.87s-.05-.65-.15-.86c-.09-.21-.23-.36-.4-.45-.17-.09-.38-.14-.61-.14s-.41.05-.57.14-.28.25-.37.46-.13.5-.13.86.04.63.12.84c.09.21.21.35.37.44s.35.13.58.13h0ZM397.87,38.6c-.6,0-1.08-.12-1.44-.35-.35-.24-.53-.62-.53-1.15,0-.37.09-.66.28-.89s.44-.39.76-.5c.33-.11.7-.17,1.11-.17.31,0,.57.03.78.08.22.05.4.11.53.17.13.06.22.1.26.13,0-.28-.03-.51-.09-.68-.06-.18-.17-.31-.33-.39-.15-.09-.37-.13-.65-.13-.41,0-.77.04-1.08.12-.31.08-.57.17-.77.28-.19.11-.33.2-.4.27v-.3l-.1-.98s.17-.07.37-.13c.2-.06.47-.12.82-.17.35-.06.76-.09,1.24-.09.66,0,1.16.1,1.51.29.35.19.58.46.71.81.13.35.2.78.2,1.28v1.8c0,.19.02.32.06.41.05.08.09.14.14.19h-1.62v-.21l.02-.19-.02-.02c-.05.06-.13.12-.23.18s-.22.12-.37.17-.32.09-.51.12-.41.05-.65.05h0ZM398.34,37.59c.28,0,.51-.02.7-.06.19-.05.34-.11.44-.18.1-.08.15-.17.15-.28,0-.15-.12-.28-.35-.38-.23-.1-.54-.15-.93-.15s-.65.05-.81.16c-.15.11-.23.24-.23.4,0,.2.09.33.27.4.18.06.43.09.76.09ZM402.07,38.5s.09-.05.13-.14c.05-.09.07-.25.07-.46v-3.38c0-.21-.02-.36-.07-.45-.04-.09-.08-.14-.13-.15.29,0,.59-.02.9-.06.31-.05.55-.09.72-.14v.61l-.02.13.02.02s.08-.13.19-.25.26-.23.46-.34c.2-.11.45-.17.74-.17.62,0,1.09.18,1.42.53.33.35.5.91.5,1.66v1.99c0,.21.02.37.06.46.05.09.09.14.14.14h-1.82s.09-.05.13-.14c.05-.09.07-.25.07-.46v-1.96c0-.31-.03-.56-.1-.73-.07-.18-.16-.31-.28-.38-.11-.07-.25-.11-.4-.11-.19,0-.37.05-.54.14s-.3.23-.41.42c-.11.19-.16.44-.16.75v1.87c0,.21.02.37.06.46.05.09.09.14.14.14,0,0-1.82,0-1.82,0ZM408.68,38.5s.09-.06.13-.15c.05-.09.07-.24.07-.45v-1.87c0-.27-.03-.5-.08-.69-.05-.2-.13-.35-.24-.46s-.27-.16-.46-.16c-.33,0-.59.12-.8.35-.2.23-.3.59-.3,1.06h-.73c0-.32.05-.62.15-.91s.24-.55.43-.77c.19-.23.41-.4.67-.53.26-.13.55-.2.86-.2.4,0,.74.07,1.03.22.29.14.51.38.66.71.15.33.23.79.23,1.36v1.89c0,.21.02.36.06.45.05.09.09.14.14.15h-1.82ZM413.9,38.6c-.53,0-.97-.05-1.32-.16s-.62-.27-.83-.48-.35-.47-.44-.77-.13-.64-.13-1.02c0-.75.21-1.35.63-1.79.42-.44,1.06-.66,1.93-.66.51,0,.92.07,1.23.21.32.14.56.33.73.56s.28.49.34.78c.07.28.1.56.1.85v.47s-.09-.04-.28-.06c-.18-.03-.49-.04-.92-.04h-2.32c0,.37.11.64.33.83.23.18.59.27,1.1.27.43,0,.81-.05,1.14-.15.34-.11.59-.21.74-.3v.3l.1.76c-.13.09-.37.18-.73.27-.36.09-.83.13-1.4.13ZM412.99,35.63h1.73c0-.15-.03-.29-.1-.43-.06-.14-.16-.25-.3-.34-.14-.09-.33-.14-.58-.14s-.45.04-.6.11-.26.16-.33.27c-.07.11-.1.22-.1.33,0,.07.02.12.06.15.04.03.11.05.22.05h0Z"/>
  <g>
    <rect class="st5" x="198.5" y="159.53" width="220" height="170" rx="19" ry="19" shape-rendering="crispEdges" transform="translate(35.92 528.56) rotate(-84.58)"/>
    <rect class="st0" x="243.5" y="184.03" width="130" height="121" transform="translate(35.92 528.56) rotate(-84.58)"/>
  </g>
  <rect class="st4" x="69.7" y="115.83" width="170" height="220" rx="19" ry="19" transform="translate(-27.26 21.33) rotate(-7.25)"/>
  <path class="st10" d="M324.73,281.89l9.28.89.89-9.28-9.28-.89-.89,9.28ZM278.35,277.46l9.28.89.89-9.28-9.28-.89-.89,9.28ZM341.1,208.56l-9.28-.89-.89,9.28,9.28.89.89-9.28ZM285.44,203.25l-.89,9.28,9.28.89.89-9.28-9.28-.89ZM346.83,246.56l.89-9.28-9.28-.89.89-9.28-9.28-.89.89-9.28-9.28-.89-.89,9.28-18.55-1.77.89-9.28-9.28-.89-.89,9.28-9.28-.89-.89,9.28-9.28-.89-.89,9.28-9.28-.89-1.77,18.55,9.28.89.89-9.28,9.28.89-.89,9.28,9.28.89-.89,9.28,9.28.89.89-9.28,18.55,1.77-.89,9.28,9.28.89.89-9.28,9.28.89.89-9.28,9.28.89-.89,9.28,9.28.89,1.77-18.55-9.28-.89h0ZM300.45,242.13l-9.28-.89.89-9.28,9.28.89-.89,9.28ZM328.28,244.78l-9.28-.89.89-9.28,9.28.89-.89,9.28Z"/>
</svg>