<?xml version="1.0" encoding="UTF-8"?>
<svg id="Ebene_1" xmlns="http://www.w3.org/2000/svg" version="1.1" viewBox="0 0 105 120">
  <!-- Generator: Adobe Illustrator 30.3.0, SVG Export Plug-In . SVG Version: 2.1.3 Build 182)  -->
  <defs>
    <style>
      .st0 {
        fill: #f48fb7;
      }

      .st1 {
        fill: #f6f6f6;
      }

      .st2 {
        fill: #fff;
      }

      .st3 {
        fill: #768d9b;
      }
    </style>
  </defs>
  <rect class="st1" width="105" height="120" rx="12" ry="12"/>
  <g>
    <polygon class="st0" points="75.93 82.8 75.92 82.6 75.92 56.54 72.25 56.6 72.19 45.69 69 45.69 68.94 42.18 65.62 42.18 65.62 38.81 58.92 38.74 58.79 37.09 45.27 37.09 45.2 38.68 38.83 38.74 38.83 42.12 35.32 42.05 35.32 45.49 31.67 45.49 31.61 56.07 28.07 56.01 28.14 82.74 31.67 82.74 31.69 79.96 35.25 79.96 35.25 76.19 38.85 76.16 38.85 79.69 42.23 79.74 42.27 82.87 48.56 82.91 48.56 76.16 55.15 76.12 55.11 82.87 62.69 82.91 62.74 79.52 65.81 79.52 65.78 76.12 68.9 76.12 68.94 79.49 72.19 79.43 72.19 82.83 75.93 82.8"/>
    <polygon class="st2" points="69.01 48.99 65.24 48.99 65.24 45.74 58.35 45.74 58.35 48.99 55.35 48.99 55.35 58.94 58.35 58.94 58.35 62.45 65.24 62.45 65.24 58.94 69.01 58.94 69.01 48.99"/>
    <polygon class="st2" points="48.72 49.21 44.95 49.21 44.95 46 38.06 46 38.06 49.21 35.06 49.21 35.06 59.06 38.06 59.06 38.06 62.54 44.95 62.54 44.95 59.06 48.72 59.06 48.72 49.21"/>
    <rect class="st3" x="55.35" y="52.74" width="6.5" height="6.18"/>
    <rect class="st3" x="35.06" y="52.93" width="6.5" height="6.11"/>
  </g>
</svg>