<?xml version="1.0" encoding="UTF-8"?>
<svg id="Ebene_1" xmlns="http://www.w3.org/2000/svg" version="1.1" viewBox="0 0 105 120">
  <!-- Generator: Adobe Illustrator 30.3.0, SVG Export Plug-In . SVG Version: 2.1.3 Build 182)  -->
  <defs>
    <style>
      .st0 {
        fill: #b0b0e6;
      }

      .st1 {
        fill: #f6f6f6;
      }
    </style>
  </defs>
  <rect class="st1" width="105" height="120" rx="12" ry="12"/>
  <path class="st0" d="M55.8,17.05h-6.61v6.61h-6.61v6.61h-6.61v13.22h-6.61v33.04h6.61v13.22h6.61v6.61h6.61v6.61h6.61v6.61h6.61v-13.22h6.61v-6.61h6.61v-6.61h-6.61v-6.61h-6.61v-6.61h6.61v-19.82h-6.61v-6.61h6.61v-6.61h6.61v-6.61h-6.61v-6.61h-6.61v-13.22h-6.61v6.61ZM55.8,83.13v6.61h-6.61v-6.61h6.61ZM55.8,69.91v6.61h-6.61v-6.61h6.61ZM55.8,56.7v6.61h-6.61v-6.61h6.61ZM55.8,43.48v6.61h-6.61v-6.61h6.61ZM55.8,30.26v6.61h-6.61v-6.61h6.61Z"/>
</svg>