<?xml version="1.0" encoding="UTF-8"?>
<svg id="Ebene_1" xmlns="http://www.w3.org/2000/svg" xmlns:xlink="http://www.w3.org/1999/xlink" version="1.1" viewBox="0 0 105 120">
  <!-- Generator: Adobe Illustrator 30.3.0, SVG Export Plug-In . SVG Version: 2.1.3 Build 182)  -->
  <defs>
    <style>
      .st0 {
        fill: none;
      }

      .st1 {
        fill: #399884;
      }

      .st2 {
        fill: #f6f6f6;
      }

      .st3 {
        fill: #40948a;
      }

      .st4 {
        fill: #fff;
      }

      .st5 {
        fill: #7dc4a3;
      }

      .st6 {
        clip-path: url(#clippath);
      }
    </style>
    <clipPath id="clippath">
      <rect class="st0" x="25.5" y="32.5" width="54.1" height="55"/>
    </clipPath>
  </defs>
  <rect class="st2" width="105" height="120" rx="12" ry="12"/>
  <g>
    <rect class="st3" x="29" y="56.7" width="46.7" height="28.4"/>
    <g class="st6">
      <path class="st1" d="M73.3,85.1H31.9v-27.1h41.4v27.1ZM69.6,32.5v20.9h-35.2v-20.9h-9v55h54.1v-50.5c-1.7-1.5-3.5-3.2-4.9-4.5h-5Z"/>
    </g>
    <rect class="st1" x="55.5" y="36.5" width="7.5" height="15.8"/>
    <path class="st4" d="M33.5,80.9h38v1.5h-38v-1.5ZM33.5,74.9h38v1.5h-38v-1.5ZM33.5,68.9h38v1.5h-38v-1.5ZM33.5,62.8h38v1.5h-38v-1.5ZM31.9,85.1h41.4v-27.1H31.9v27.1Z"/>
    <path class="st5" d="M55.5,36.5h7.5v15.8h-7.5v-15.8ZM34.5,53.4h35.2v-20.9h-35.2s0,20.9,0,20.9Z"/>
  </g>
</svg>