<?xml version="1.0" encoding="UTF-8"?>
<svg id="Ebene_1" xmlns="http://www.w3.org/2000/svg" xmlns:xlink="http://www.w3.org/1999/xlink" version="1.1" viewBox="0 0 105 120">
  <!-- Generator: Adobe Illustrator 30.3.0, SVG Export Plug-In . SVG Version: 2.1.3 Build 182)  -->
  <defs>
    <style>
      .st0, .st1 {
        fill: none;
      }

      .st2 {
        fill: #399884;
      }

      .st3 {
        fill: #f48fb7;
      }

      .st4 {
        fill: #f6f6f6;
      }

      .st5 {
        fill: #b0e6d9;
      }

      .st6 {
        clip-path: url(#clippath-1);
      }

      .st7 {
        fill: #fff;
      }

      .st1 {
        stroke: #399884;
        stroke-linecap: round;
        stroke-linejoin: round;
        stroke-width: 1.8px;
      }

      .st8 {
        clip-path: url(#clippath);
      }
    </style>
    <clipPath id="clippath">
      <rect class="st0" x="14.8" y="29.9" width="75.4" height="60.1"/>
    </clipPath>
    <clipPath id="clippath-1">
      <rect class="st0" x="14.8" y="29.9" width="75.4" height="60.1"/>
    </clipPath>
  </defs>
  <rect class="st4" width="105" height="120" rx="12" ry="12"/>
  <g>
    <path class="st1" d="M52.5,50.3s4.7-12.8-9.3-8.9-25.9,3.9-23.7-1.4c3.3-8.1,34.2-14.5,49.7-3.4s9.8,7.3,13.5,7.5c6.1.3,4.6-5.2,4.6-5.2"/>
    <g class="st8">
      <g>
        <path class="st3" d="M31.4,74.5h-3.9v-3.9h3.9v3.9ZM20.3,76.2h5.5v5.5c0,.1,0,.2.2.2h7c.1,0,.2,0,.2-.2v-5.5h5.5c.1,0,.2,0,.2-.2v-7c0-.1,0-.2-.2-.2h-5.5v-5.5c0-.1,0-.2-.2-.2h-7c-.1,0-.2,0-.2.2v5.5h-5.5c-.1,0-.2,0-.2.2v7c0,.1,0,.2.2.2"/>
        <path class="st3" d="M69.9,79c0,1.8,1.4,3.2,3.2,3.2s3.2-1.4,3.2-3.2-1.4-3.2-3.2-3.2-3.2,1.4-3.2,3.2"/>
        <path class="st3" d="M78.6,75.1c0,1.8,1.4,3.2,3.2,3.2s3.2-1.4,3.2-3.2-1.4-3.2-3.2-3.2-3.2,1.4-3.2,3.2"/>
        <path class="st3" d="M70.6,73.5c1.8,0,3.2-1.4,3.2-3.2s-1.4-3.2-3.2-3.2-3.2,1.4-3.2,3.2,1.4,3.2,3.2,3.2"/>
        <path class="st3" d="M79.4,69.6c1.8,0,3.2-1.4,3.2-3.2s-1.4-3.2-3.2-3.2-3.2,1.4-3.2,3.2,1.4,3.2,3.2,3.2"/>
        <path class="st5" d="M55.5,49.8c0-.5-.4-.9-.9-.9h-4.2c-.5,0-.9.4-.9.9v5.5h6s0-5.5,0-5.5Z"/>
      </g>
    </g>
    <rect class="st7" x="27.2" y="70.3" width="4.7" height="4.7"/>
    <g class="st6">
      <path class="st5" d="M20.2,69.1c0,0,0-.2.2-.2h5.4v-5.4c0,0,0-.2.2-.2h6.9c0,0,.2,0,.2.2v5.4h5.4c0,0,.2,0,.2.2v6.9c0,0,0,.2-.2.2h-5.4v5.4c0,0,0,.2-.2.2h-6.9c-.1,0-.2,0-.2-.2v-5.4h-5.4c-.1,0-.2,0-.2-.2v-6.9ZM70.6,67.1c1.8,0,3.2,1.4,3.2,3.2s-1.4,3.2-3.2,3.2-3.2-1.4-3.2-3.2,1.4-3.2,3.2-3.2M76.3,79c0,1.8-1.4,3.2-3.2,3.2s-3.2-1.4-3.2-3.2,1.4-3.2,3.2-3.2,3.2,1.4,3.2,3.2M79.4,63.3c1.8,0,3.2,1.4,3.2,3.2s-1.4,3.2-3.2,3.2-3.2-1.4-3.2-3.2,1.4-3.2,3.2-3.2M85,75.1c0,1.8-1.4,3.2-3.2,3.2s-3.2-1.4-3.2-3.2,1.4-3.2,3.2-3.2,3.2,1.4,3.2,3.2M15.7,90.1h73.6c.5,0,.9-.4.9-.9v-33c0-.5-.4-.9-.9-.9h-24.9v23.6h-23.3v-23.6H15.7c-.5,0-.9.4-.9.9v33c0,.5.4.9.9.9"/>
    </g>
    <rect class="st2" x="40.6" y="55.4" width="23.9" height="25.9"/>
    <g>
      <rect class="st7" x="44" y="75.7" width="8" height="2.6" rx=".5" ry=".5"/>
      <rect class="st7" x="53.2" y="75.7" width="8" height="2.6" rx=".5" ry=".5"/>
    </g>
  </g>
</svg>