<?xml version="1.0" encoding="UTF-8"?>
<svg id="Ebene_1" xmlns="http://www.w3.org/2000/svg" xmlns:xlink="http://www.w3.org/1999/xlink" version="1.1" viewBox="0 0 105 120">
  <!-- Generator: Adobe Illustrator 30.3.0, SVG Export Plug-In . SVG Version: 2.1.3 Build 182)  -->
  <defs>
    <style>
      .st0 {
        fill: none;
      }

      .st1 {
        fill: #f48fb7;
      }

      .st2 {
        fill: #f6f6f6;
      }

      .st3 {
        fill: #b19870;
      }

      .st4 {
        fill: #f8c3d7;
      }

      .st5 {
        fill: #fff;
      }

      .st6 {
        clip-path: url(#clippath);
      }
    </style>
    <clipPath id="clippath">
      <rect class="st0" x="16.8" y="35" width="71.4" height="50"/>
    </clipPath>
  </defs>
  <rect class="st2" width="105" height="120" rx="12" ry="12"/>
  <g class="st6">
    <g>
      <path class="st3" d="M31.2,48.9h42.6v14.4H31.1v-14.4h0ZM21.7,68.7h61.6c1.2,0,2.3-1,2.3-2.3v-25.4c0-1.2-1-2.3-2.3-2.3H21.8c-1.2,0-2.3,1-2.3,2.3v25.4c0,1.2,1,2.3,2.3,2.3"/>
      <path class="st3" d="M74.7,83c-1.1,0-2-.9-2-2s.9-2,2-2,2,.9,2,2-.9,2-2,2M69.3,77.8c-.6,0-1.1-.5-1.1-1.1s.5-1.1,1.1-1.1,1.1.5,1.1,1.1-.5,1.1-1.1,1.1M35.3,77.8c-.6,0-1.1-.5-1.1-1.1s.5-1.1,1.1-1.1,1.1.5,1.1,1.1-.5,1.1-1.1,1.1M29.8,83c-1.1,0-2-.9-2-2s.9-2,2-2,2,.9,2,2-.9,2-2,2M26.1,72.1l-3.9,12.9h60.7l-4.1-12.9H26.1Z"/>
      <path class="st1" d="M39.3,51.3c-2.7,0-4.8,2.2-4.8,4.8s2.2,4.8,4.8,4.8,4.8-2.2,4.8-4.8-2.2-4.8-4.8-4.8"/>
      <path class="st1" d="M65.2,51.3c-2.7,0-4.8,2.2-4.8,4.8s2.2,4.8,4.8,4.8,4.8-2.2,4.8-4.8-2.2-4.8-4.8-4.8"/>
      <path class="st4" d="M19.5,41c0-1.2,1-2.3,2.3-2.3h61.5c1.2,0,2.3,1,2.3,2.3v25.4c0,1.2-1,2.3-2.3,2.3H21.8c-1.2,0-2.3-1-2.3-2.3v-25.4ZM82.4,85H22.2l3.9-12.9h52.6l4.1,12.9h-.5M21.2,85h62.6c2.4,0,4.4-2,4.4-4.4v-41.2c0-2.4-2-4.4-4.4-4.4H21.2c-2.4,0-4.4,2-4.4,4.4v41.2c0,2.4,2,4.4,4.4,4.4"/>
      <path class="st5" d="M65.2,60.9c-2.7,0-4.8-2.2-4.8-4.8s2.2-4.8,4.8-4.8,4.8,2.2,4.8,4.8-2.2,4.8-4.8,4.8M39.3,60.9c-2.7,0-4.8-2.2-4.8-4.8s2.2-4.8,4.8-4.8,4.8,2.2,4.8,4.8-2.2,4.8-4.8,4.8M73.8,48.9H31.1v14.4h42.7v-14.4Z"/>
      <path class="st5" d="M29.8,78.9c-1.1,0-2,.9-2,2s.9,2,2,2,2-.9,2-2-.9-2-2-2"/>
      <path class="st5" d="M35.3,75.6c-.6,0-1.1.5-1.1,1.1s.5,1.1,1.1,1.1,1.1-.5,1.1-1.1-.5-1.1-1.1-1.1"/>
      <path class="st5" d="M74.7,78.9c-1.1,0-2,.9-2,2s.9,2,2,2,2-.9,2-2-.9-2-2-2"/>
      <path class="st5" d="M69.3,75.6c-.6,0-1.1.5-1.1,1.1s.5,1.1,1.1,1.1,1.1-.5,1.1-1.1-.5-1.1-1.1-1.1"/>
    </g>
  </g>
</svg>