<?xml version="1.0" encoding="UTF-8"?>
<svg id="Ebene_1" xmlns="http://www.w3.org/2000/svg" version="1.1" viewBox="0 0 105 120">
  <!-- Generator: Adobe Illustrator 30.3.0, SVG Export Plug-In . SVG Version: 2.1.3 Build 182)  -->
  <defs>
    <style>
      .st0 {
        fill: #f6f6f6;
      }

      .st1 {
        fill: #dac4f5;
      }
    </style>
  </defs>
  <rect class="st0" width="105" height="120" rx="12" ry="12"/>
  <path class="st1" d="M73.87,84.43h6.11v-6.11h-6.11v6.11ZM25.02,84.43h6.11v-6.11h-6.11v6.11ZM73.87,78.32v-6.11h-6.11v6.11h6.11ZM73.87,47.79v-6.11h-12.21v-6.11h-18.32v6.11h-12.21v6.11h-6.11v18.32h12.21v6.11h6.11v-6.11h18.32v6.11h6.11v-6.11h12.21v-18.32h-6.11ZM43.34,60h-12.21v-6.11h12.21v6.11ZM73.87,60h-12.21v-6.11h12.21v6.11ZM31.13,78.32h6.11v-6.11h-6.11v6.11ZM43.34,78.32h18.32v-6.11h-18.32v6.11Z"/>
</svg>