<?xml version="1.0" encoding="UTF-8"?>
<svg id="Ebene_1" xmlns="http://www.w3.org/2000/svg" version="1.1" viewBox="0 0 105 120">
  <!-- Generator: Adobe Illustrator 30.3.0, SVG Export Plug-In . SVG Version: 2.1.3 Build 182)  -->
  <defs>
    <style>
      .st0 {
        fill: #e89478;
      }

      .st1 {
        fill: #f6f6f6;
      }
    </style>
  </defs>
  <rect class="st1" width="105" height="120" rx="12" ry="12"/>
  <g>
    <rect class="st0" x="42.45" y="76.75" width="6.7" height="6.7"/>
    <path class="st0" d="M75.95,49.95v-6.7h-6.7v-6.7h-6.7v6.7h-20.1v-6.7h-6.7v6.7h-6.7v6.7h-6.7v26.8h6.7v-6.7h6.7v6.7h6.7v-6.7h6.7v6.7h6.7v6.7h6.7v-6.7h-6.7v-6.7h6.7v6.7h6.7v-6.7h6.7v6.7h-6.7v6.7h6.7v-6.7h6.7v-26.8h-6.7ZM49.15,56.65h-13.4v-6.7h13.4v6.7ZM69.25,56.65h-13.4v-6.7h13.4v6.7Z"/>
    <rect class="st0" x="29.05" y="76.75" width="6.7" height="6.7"/>
  </g>
</svg>