<?xml version="1.0" encoding="UTF-8"?>
<svg id="Ebene_1" xmlns="http://www.w3.org/2000/svg" version="1.1" viewBox="0 0 105 120">
  <!-- Generator: Adobe Illustrator 30.3.0, SVG Export Plug-In . SVG Version: 2.1.3 Build 182)  -->
  <defs>
    <style>
      .st0 {
        fill: #f6f6f6;
      }

      .st1 {
        fill: #99cdf2;
      }

      .st2 {
        fill: #334e5f;
      }

      .st3 {
        fill: #fff;
      }
    </style>
  </defs>
  <rect class="st0" width="105" height="120" rx="12" ry="12"/>
  <g>
    <polygon class="st1" points="28.57 37.2 28.58 37.4 28.58 63.46 32.25 63.4 32.31 74.31 35.5 74.31 35.56 77.82 38.88 77.82 38.88 81.19 45.58 81.26 45.71 82.91 59.23 82.91 59.3 81.32 65.67 81.26 65.67 77.88 69.18 77.95 69.18 74.51 72.83 74.51 72.89 63.93 76.43 63.99 76.36 37.26 72.83 37.26 72.81 40.04 69.25 40.04 69.25 43.81 65.65 43.84 65.65 40.31 62.27 40.26 62.23 37.13 55.94 37.09 55.94 43.84 49.35 43.88 49.39 37.13 41.81 37.09 41.76 40.48 38.69 40.48 38.72 43.88 35.6 43.88 35.56 40.51 32.31 40.57 32.31 37.17 28.57 37.2"/>
    <polygon class="st3" points="69.51 56.99 65.74 56.99 65.74 53.74 58.85 53.74 58.85 56.99 55.85 56.99 55.85 66.94 58.85 66.94 58.85 70.45 65.74 70.45 65.74 66.94 69.51 66.94 69.51 56.99"/>
    <polygon class="st3" points="49.22 57.21 45.45 57.21 45.45 54 38.56 54 38.56 57.21 35.56 57.21 35.56 67.06 38.56 67.06 38.56 70.54 45.45 70.54 45.45 67.06 49.22 67.06 49.22 57.21"/>
    <rect class="st2" x="55.85" y="60.74" width="6.5" height="6.18"/>
    <rect class="st2" x="35.56" y="60.93" width="6.5" height="6.11"/>
  </g>
</svg>