<?xml version="1.0" encoding="UTF-8"?>
<svg id="Ebene_1" xmlns="http://www.w3.org/2000/svg" version="1.1" viewBox="0 0 105 120">
  <!-- Generator: Adobe Illustrator 30.3.0, SVG Export Plug-In . SVG Version: 2.1.3 Build 182)  -->
  <defs>
    <style>
      .st0 {
        fill: #f6f6f6;
      }

      .st1 {
        fill: #66cfbc;
      }
    </style>
  </defs>
  <rect class="st0" width="105" height="120" rx="12" ry="12"/>
  <path class="st1" d="M65.68,86.36h6.59v-6.59h-6.59s0,6.59,0,6.59ZM32.73,86.36h6.59v-6.59h-6.59v6.59ZM72.27,33.64h-6.59v6.59h6.59s0-6.59,0-6.59ZM32.73,33.64v6.59h6.59v-6.59h-6.59ZM78.86,60v-6.59h-6.59v-6.59h-6.59v-6.59h-6.59v6.59h-13.18v-6.59h-6.59v6.59h-6.59v6.59h-6.59v6.59h-6.59v13.18h6.59v-6.59h6.59v6.59h6.59v6.59h6.59v-6.59h13.18v6.59h6.59v-6.59h6.59v-6.59h6.59v6.59h6.59v-13.18s-6.59,0-6.59,0ZM45.91,60h-6.59v-6.59h6.59v6.59ZM65.68,60h-6.59v-6.59h6.59v6.59Z"/>
</svg>