<?xml version="1.0" encoding="UTF-8"?>
<svg id="Ebene_1" xmlns="http://www.w3.org/2000/svg" version="1.1" viewBox="0 0 105 120">
  <!-- Generator: Adobe Illustrator 30.3.0, SVG Export Plug-In . SVG Version: 2.1.3 Build 182)  -->
  <defs>
    <style>
      .st0 {
        fill: #f48fb7;
      }

      .st1 {
        fill: #f6f6f6;
      }

      .st2 {
        fill: #b19870;
      }

      .st3 {
        fill: #f8c3d7;
      }
    </style>
  </defs>
  <rect class="st1" width="105" height="120" rx="12" ry="12"/>
  <g>
    <polygon class="st3" points="72.62 55.13 70.11 55.13 70.11 49.47 65.11 49.47 65.11 44.99 41.68 44.99 41.68 49.47 35.76 49.47 35.76 55.13 32.38 55.33 32.66 70.58 35.76 70.79 35.76 78.43 41.68 78.43 41.68 83.83 65.11 83.83 65.11 78.43 70.11 78.43 70.11 70.79 72.62 70.79 72.62 55.13"/>
    <polygon class="st2" points="64.12 36.44 55.24 36.44 55.24 36.17 49.71 36.17 49.71 49.21 55.24 49.21 55.24 41.97 64.12 41.97 64.12 36.44"/>
    <rect class="st0" x="38.13" y="54.34" width="5.53" height="14.09"/>
  </g>
</svg>