<?xml version="1.0" encoding="UTF-8"?>
<svg id="Ebene_1" xmlns="http://www.w3.org/2000/svg" version="1.1" viewBox="0 0 105 120">
  <!-- Generator: Adobe Illustrator 30.3.0, SVG Export Plug-In . SVG Version: 2.1.3 Build 182)  -->
  <defs>
    <style>
      .st0 {
        fill: #f6f6f6;
      }

      .st1 {
        fill: #768d9b;
      }
    </style>
  </defs>
  <rect class="st0" width="105" height="120" rx="12" ry="12"/>
  <path class="st1" d="M79.29,60v-16.08h-5.36v10.72h-5.36v-5.36h-5.36v-5.36h-5.36v5.36h-10.72v-5.36h-5.36v5.36h-5.36v5.36h-5.36v-10.72h-5.36v16.08h5.36v16.08h-5.36v5.36h10.72v-10.72h5.36v5.36h5.36v-5.36h10.72v5.36h5.36v-5.36h5.36v10.72h5.36s5.36,0,5.36,0v-5.36h-5.36v-16.08h5.36ZM47.14,65.36h-5.36v-10.72h5.36v10.72ZM63.22,65.36h-5.36v-10.72h5.36v10.72ZM36.42,38.57v5.36h5.36v-5.36h-5.36ZM68.58,38.57h-5.36v5.36h5.36v-5.36Z"/>
</svg>