<?xml version="1.0" encoding="UTF-8"?>
<svg id="Ebene_1" xmlns="http://www.w3.org/2000/svg" version="1.1" viewBox="0 0 105 120">
  <!-- Generator: Adobe Illustrator 30.3.0, SVG Export Plug-In . SVG Version: 2.1.3 Build 182)  -->
  <defs>
    <style>
      .st0 {
        fill: #f6f6f6;
      }

      .st1 {
        fill: #b19870;
      }

      .st2 {
        fill: #fff;
      }

      .st3 {
        fill: #ed1b76;
      }
    </style>
  </defs>
  <rect class="st0" width="105" height="120" rx="12" ry="12"/>
  <g>
    <g>
      <polygon class="st3" points="52.22 59.27 52.22 57.14 51.09 57.14 51.09 55.74 49.71 55.74 49.71 54.84 36.13 54.84 36.13 55.74 34.75 55.74 34.75 57.14 33.19 57.14 33.19 59.27 31.11 59.27 31.11 72.91 33.19 72.91 33.19 75.21 34.75 75.21 34.75 76.77 36.13 76.77 36.13 77.67 49.71 77.67 49.71 76.77 51.09 76.77 51.09 75.21 52.22 75.21 52.22 72.91 54.47 72.91 54.47 59.27 52.22 59.27"/>
      <g>
        <rect class="st2" x="33.45" y="66.25" width="3.92" height="3.92"/>
        <rect class="st2" x="37.25" y="70.29" width="4.29" height="4.29"/>
      </g>
    </g>
    <g>
      <polygon class="st3" points="65.08 66.52 65.08 64.38 63.96 64.38 63.96 62.99 62.57 62.99 62.57 62.08 49 62.08 49 62.99 47.61 62.99 47.61 64.38 46.06 64.38 46.06 66.52 43.98 66.52 43.98 80.15 46.06 80.15 46.06 82.45 47.61 82.45 47.61 84.01 49 84.01 49 84.92 62.57 84.92 62.57 84.01 63.96 84.01 63.96 82.45 65.08 82.45 65.08 80.15 67.33 80.15 67.33 66.52 65.08 66.52"/>
      <g>
        <rect class="st2" x="46.31" y="73.49" width="3.92" height="3.92"/>
        <rect class="st2" x="50.11" y="77.54" width="4.29" height="4.29"/>
      </g>
    </g>
    <polygon class="st1" points="52.9 59.95 52.9 55.84 56.57 55.73 56.57 51.62 60.71 51.62 60.75 44.49 57.65 44.49 57.65 48.6 49.44 48.49 49.4 52.52 45.33 52.49 45.33 55.84 41.33 55.84 41.33 51.62 44.57 51.62 44.61 47.65 48.47 47.62 48.57 43.52 56.68 43.3 56.79 39.3 64.79 39.3 64.79 35.08 73.87 35.19 73.89 44.49 65.94 44.49 65.9 52.96 61.68 52.92 61.72 56.89 57.79 56.89 57.79 59.81 57.83 63.62 52.93 63.58 52.9 59.95"/>
  </g>
</svg>