<?xml version="1.0" encoding="UTF-8"?>
<svg id="Ebene_1" xmlns="http://www.w3.org/2000/svg" version="1.1" viewBox="0 0 105 120">
  <!-- Generator: Adobe Illustrator 30.3.0, SVG Export Plug-In . SVG Version: 2.1.3 Build 182)  -->
  <defs>
    <style>
      .st0 {
        fill: #f6f6f6;
      }

      .st1 {
        fill: #294f60;
      }
    </style>
  </defs>
  <rect class="st0" width="105" height="120" rx="12" ry="12"/>
  <path class="st1" d="M78.47,53.51v-6.49h-6.49v-6.49h-6.49v-6.49h-6.49v6.49h-12.99v-6.49h-6.49v6.49h-6.49v6.49h-6.49v6.49h-6.49v19.48h6.49v-12.99h6.49v12.99h6.49v6.49h-6.49v6.49h6.49s6.49,0,6.49,0v-12.99h12.99v12.99h6.49s6.49,0,6.49,0v-6.49h-6.49v-6.49h6.49v-12.99h6.49v12.99h6.49v-19.48h-6.49ZM46.01,60h-6.49v-6.49h6.49v6.49ZM65.49,60h-6.49v-6.49h6.49v6.49Z"/>
</svg>