<?xml version="1.0" encoding="UTF-8"?>
<svg id="Ebene_1" xmlns="http://www.w3.org/2000/svg" version="1.1" viewBox="0 0 105 120">
  <!-- Generator: Adobe Illustrator 30.3.0, SVG Export Plug-In . SVG Version: 2.1.3 Build 182)  -->
  <defs>
    <style>
      .st0 {
        fill: #ff9727;
      }

      .st1 {
        fill: #f6f6f6;
      }
    </style>
  </defs>
  <rect class="st1" width="105" height="120" rx="12" ry="12"/>
  <path class="st0" d="M61.95,88.35h12.6v-6.3h-12.6s0,6.3,0,6.3ZM24.15,75.75v6.3h6.3v-6.3h-6.3ZM36.75,82.05h-6.3v6.3h12.6v-6.3h-6.3ZM74.55,63.15v-6.3h6.3v-12.6h-6.3v-6.3h-12.6v-6.3h-18.9v6.3h-12.6v6.3h-6.3v12.6h6.3v6.3h6.3v6.3h-6.3v6.3h12.6v-6.3h18.9v6.3h12.6v-6.3h-6.3v-6.3s6.3,0,6.3,0ZM36.75,50.55v-6.3h6.3v6.3h-6.3ZM61.95,63.15h-18.9v-6.3h18.9s0,6.3,0,6.3ZM61.95,50.55v-6.3h6.3v6.3h-6.3ZM80.85,82.05v-6.3h-6.3v6.3h6.3Z"/>
</svg>