<?xml version="1.0" encoding="UTF-8"?>
<svg id="Ebene_1" xmlns="http://www.w3.org/2000/svg" xmlns:xlink="http://www.w3.org/1999/xlink" version="1.1" viewBox="0 0 105 120">
  <!-- Generator: Adobe Illustrator 30.3.0, SVG Export Plug-In . SVG Version: 2.1.3 Build 182)  -->
  <defs>
    <style>
      .st0 {
        fill: none;
      }

      .st1 {
        fill: #f48fb7;
      }

      .st2 {
        fill: #f6f6f6;
      }

      .st3 {
        fill: #b19870;
      }

      .st4 {
        fill: #f8c3d7;
      }

      .st5 {
        fill: #fff;
      }

      .st6 {
        clip-path: url(#clippath);
      }
    </style>
    <clipPath id="clippath">
      <rect class="st0" x="16.8" y="35" width="71.4" height="50"/>
    </clipPath>
  </defs>
  <rect class="st2" width="105" height="120" rx="12" ry="12"/>
  <g class="st6">
    <path class="st3" d="M73.8,71.1H31.2v-14.4h42.7v14.4ZM83.3,51.3H21.7c-1.2,0-2.3,1-2.3,2.3v25.4c0,1.2,1,2.3,2.3,2.3h61.5c1.2,0,2.3-1,2.3-2.3v-25.4c0-1.2-1-2.3-2.3-2.3"/>
    <path class="st3" d="M30.3,37c1.1,0,2,.9,2,2s-.9,2-2,2-2-.9-2-2,.9-2,2-2M35.7,42.2c.6,0,1.1.5,1.1,1.1s-.5,1.1-1.1,1.1-1.1-.5-1.1-1.1.5-1.1,1.1-1.1M69.7,42.2c.6,0,1.1.5,1.1,1.1s-.5,1.1-1.1,1.1-1.1-.5-1.1-1.1.5-1.1,1.1-1.1M75.2,37c1.1,0,2,.9,2,2s-.9,2-2,2-2-.9-2-2,.9-2,2-2M78.9,47.9l3.9-12.9H22.6c-.2,0-.3,0-.5,0l4.1,12.9h52.6Z"/>
    <path class="st1" d="M65.7,68.7c2.7,0,4.8-2.2,4.8-4.8s-2.2-4.8-4.8-4.8-4.8,2.2-4.8,4.8,2.2,4.8,4.8,4.8"/>
    <path class="st1" d="M39.8,68.7c2.7,0,4.8-2.2,4.8-4.8s-2.2-4.8-4.8-4.8-4.8,2.2-4.8,4.8,2.2,4.8,4.8,4.8"/>
    <path class="st4" d="M85.5,79c0,1.2-1,2.3-2.3,2.3H21.7c-1.2,0-2.3-1-2.3-2.3v-25.4c0-1.2,1-2.3,2.3-2.3h61.5c1.2,0,2.3,1,2.3,2.3v25.4ZM22.6,35h60.2l-3.9,12.9H26.3l-4.1-12.9c.2,0,.3,0,.5,0M83.8,35H21.2c-2.4,0-4.4,2-4.4,4.4v41.2c0,2.4,2,4.4,4.4,4.4h62.6c2.4,0,4.4-2,4.4-4.4v-41.2c0-2.4-2-4.4-4.4-4.4"/>
    <path class="st5" d="M39.8,59.1c2.7,0,4.8,2.2,4.8,4.8s-2.2,4.8-4.8,4.8-4.8-2.2-4.8-4.8,2.2-4.8,4.8-4.8M65.7,59.1c2.7,0,4.8,2.2,4.8,4.8s-2.2,4.8-4.8,4.8-4.8-2.2-4.8-4.8,2.2-4.8,4.8-4.8M31.2,71.1h42.7v-14.4H31.2v14.4Z"/>
    <path class="st5" d="M75.2,41.1c1.1,0,2-.9,2-2s-.9-2-2-2-2,.9-2,2,.9,2,2,2"/>
    <path class="st5" d="M69.7,44.4c.6,0,1.1-.5,1.1-1.1s-.5-1.1-1.1-1.1-1.1.5-1.1,1.1.5,1.1,1.1,1.1"/>
    <path class="st5" d="M30.3,41.1c1.1,0,2-.9,2-2s-.9-2-2-2-2,.9-2,2,.9,2,2,2"/>
    <path class="st5" d="M35.7,44.4c.6,0,1.1-.5,1.1-1.1s-.5-1.1-1.1-1.1-1.1.5-1.1,1.1.5,1.1,1.1,1.1"/>
  </g>
</svg>