<?xml version="1.0" encoding="UTF-8"?>
<svg id="Ebene_1" xmlns="http://www.w3.org/2000/svg" version="1.1" viewBox="0 0 105 120">
  <!-- Generator: Adobe Illustrator 30.3.0, SVG Export Plug-In . SVG Version: 2.1.3 Build 182)  -->
  <defs>
    <style>
      .st0 {
        fill: #f6f6f6;
      }

      .st1 {
        fill: #3ac1ff;
      }
    </style>
  </defs>
  <rect class="st0" width="105" height="120" rx="12" ry="12"/>
  <path class="st1" d="M23.9,88.6h6.36v-6.36h-6.36v6.36ZM42.97,88.6h6.36v-6.36h-6.36v6.36ZM30.25,82.25h6.36v-6.36h-6.36v6.36ZM55.68,75.89h-6.36v6.36h6.36v6.36h6.36v-6.36h-6.36v-6.36ZM74.75,56.82v-6.36h-6.36v-6.36h-6.36v-6.36h-6.36v-6.36h-6.36v6.36h-6.36v6.36h-6.36v6.36h-6.36v6.36h-6.36v12.71h12.71v6.36h31.78v-6.36h12.71v-12.71h-6.36ZM49.32,63.18h-12.71v-6.36h12.71v6.36ZM68.39,63.18h-12.71v-6.36h12.71v6.36ZM74.75,75.89h-6.36v6.36h6.36v6.36h6.36v-6.36h-6.36v-6.36Z"/>
</svg>