<?xml version="1.0" encoding="UTF-8"?>
<svg id="Ebene_1" xmlns="http://www.w3.org/2000/svg" version="1.1" viewBox="0 0 27 27">
  <!-- Generator: Adobe Illustrator 30.3.0, SVG Export Plug-In . SVG Version: 2.1.3 Build 182)  -->
  <defs>
    <style>
      .st0 {
        fill: #ed1b76;
      }
    </style>
  </defs>
  <path class="st0" d="M13.5,26.83c-1.82,0-3.54-.35-5.17-1.05-1.62-.7-3.04-1.66-4.25-2.87-1.21-1.21-2.17-2.63-2.87-4.25-.7-1.62-1.05-3.34-1.05-5.17s.36-3.58,1.08-5.2c.72-1.62,1.7-3.03,2.93-4.23,1.23-1.2,2.67-2.15,4.32-2.85,1.64-.7,3.4-1.05,5.27-1.05s3.46.31,5.03.92c1.58.61,2.96,1.46,4.15,2.53s2.13,2.36,2.83,3.83c.7,1.48,1.05,3.07,1.05,4.78,0,2.56-.78,4.52-2.33,5.88-1.56,1.37-3.44,2.05-5.67,2.05h-2.47c-.2,0-.34.06-.42.17-.08.11-.12.23-.12.37,0,.27.17.65.5,1.15.33.5.5,1.07.5,1.72,0,1.11-.31,1.93-.92,2.47-.61.53-1.42.8-2.42.8ZM6.17,14.83c.58,0,1.06-.19,1.43-.57.38-.38.57-.86.57-1.43s-.19-1.06-.57-1.43c-.38-.38-.86-.57-1.43-.57s-1.06.19-1.43.57c-.38.38-.57.86-.57,1.43s.19,1.06.57,1.43c.38.38.86.57,1.43.57ZM10.17,9.5c.58,0,1.06-.19,1.43-.57.38-.38.57-.86.57-1.43s-.19-1.06-.57-1.43c-.38-.38-.86-.57-1.43-.57s-1.06.19-1.43.57c-.38.38-.57.86-.57,1.43s.19,1.06.57,1.43.86.57,1.43.57ZM16.83,9.5c.58,0,1.06-.19,1.43-.57.38-.38.57-.86.57-1.43s-.19-1.06-.57-1.43-.86-.57-1.43-.57-1.06.19-1.43.57c-.38.38-.57.86-.57,1.43s.19,1.06.57,1.43c.38.38.86.57,1.43.57ZM20.83,14.83c.58,0,1.06-.19,1.43-.57s.57-.86.57-1.43-.19-1.06-.57-1.43c-.38-.38-.86-.57-1.43-.57s-1.06.19-1.43.57c-.38.38-.57.86-.57,1.43s.19,1.06.57,1.43c.38.38.86.57,1.43.57ZM13.5,24.17c.2,0,.36-.06.48-.17.12-.11.18-.26.18-.43,0-.31-.17-.68-.5-1.1-.33-.42-.5-1.06-.5-1.9,0-.93.32-1.68.97-2.23.64-.56,1.43-.83,2.37-.83h2.33c1.47,0,2.72-.43,3.77-1.28,1.04-.86,1.57-2.18,1.57-3.98,0-2.69-1.03-4.93-3.08-6.72-2.06-1.79-4.49-2.68-7.32-2.68-3.02,0-5.6,1.03-7.73,3.1-2.13,2.07-3.2,4.59-3.2,7.57s1.04,5.47,3.12,7.55c2.08,2.08,4.59,3.12,7.55,3.12Z"/>
</svg>