<?xml version="1.0" encoding="UTF-8"?>
<svg id="Ebene_1" xmlns="http://www.w3.org/2000/svg" version="1.1" viewBox="0 0 27 27">
  <!-- Generator: Adobe Illustrator 30.3.0, SVG Export Plug-In . SVG Version: 2.1.3 Build 182)  -->
  <defs>
    <style>
      .st0 {
        fill: #66cfbc;
      }
    </style>
  </defs>
  <path class="st0" d="M5.49,26.86c-.73,0-1.36-.26-1.89-.78-.52-.52-.78-1.15-.78-1.89v-2.64c0-.45.1-.86.3-1.24s.47-.7.8-.97c1.54-1.25,2.69-2.5,3.46-3.77.77-1.27,1.31-2.4,1.62-3.41h-2.17c-.38,0-.7-.13-.95-.38-.26-.26-.38-.57-.38-.95s.13-.7.38-.95c.26-.26.57-.38.95-.38h1.67c-.31-.49-.56-1.01-.73-1.57s-.27-1.15-.27-1.77c0-1.67.58-3.09,1.75-4.26C10.41.73,11.83.14,13.5.14s3.09.58,4.26,1.75c1.17,1.17,1.75,2.59,1.75,4.26,0,.62-.09,1.21-.27,1.77s-.42,1.08-.73,1.57h1.67c.38,0,.7.13.95.38.26.26.38.57.38.95s-.13.7-.38.95c-.26.26-.57.38-.95.38h-2.17c.31,1,.85,2.14,1.62,3.41.77,1.27,1.92,2.53,3.46,3.77.33.27.6.59.8.97.2.38.3.79.3,1.24v2.64c0,.73-.26,1.36-.78,1.89-.52.52-1.15.78-1.89.78H5.49ZM5.49,24.19h16.03v-2.67c-2.05-1.6-3.53-3.26-4.44-4.96-.91-1.7-1.52-3.17-1.84-4.39h-3.47c-.31,1.22-.92,2.69-1.84,4.39-.91,1.7-2.39,3.36-4.44,4.96v2.67ZM13.5,9.49c.94,0,1.73-.32,2.37-.97.65-.65.97-1.44.97-2.37s-.32-1.73-.97-2.37c-.65-.65-1.44-.97-2.37-.97s-1.73.32-2.37.97c-.65.65-.97,1.44-.97,2.37s.32,1.73.97,2.37,1.44.97,2.37.97Z"/>
</svg>