<?xml version="1.0" encoding="UTF-8"?>
<svg id="Ebene_1" xmlns="http://www.w3.org/2000/svg" version="1.1" viewBox="0 0 27 26">
  <!-- Generator: Adobe Illustrator 30.3.0, SVG Export Plug-In . SVG Version: 2.1.3 Build 182)  -->
  <defs>
    <style>
      .st0 {
        fill: #3ac1ff;
      }
    </style>
  </defs>
  <path class="st0" d="M2.81,22.73l-1.13-.47c-.69-.29-1.15-.79-1.38-1.5-.23-.71-.19-1.41.12-2.1l2.4-5.2v9.27ZM8.14,25.67c-.73,0-1.36-.26-1.88-.78-.52-.52-.78-1.15-.78-1.88v-8l3.53,9.8c.07.16.13.31.2.45.07.14.16.28.27.42h-1.33ZM15.01,25.53c-.71.27-1.4.23-2.07-.1-.67-.33-1.13-.86-1.4-1.57L5.61,7.6c-.27-.71-.24-1.41.07-2.08.31-.68.82-1.14,1.53-1.38L17.27.47c.71-.27,1.4-.23,2.07.1.67.33,1.13.86,1.4,1.57l5.93,16.27c.27.71.24,1.41-.07,2.08-.31.68-.82,1.14-1.53,1.38l-10.07,3.67ZM12.14,9.67c.38,0,.69-.13.95-.38.26-.26.38-.57.38-.95s-.13-.69-.38-.95c-.26-.26-.57-.38-.95-.38s-.69.13-.95.38c-.26.26-.38.57-.38.95s.13.69.38.95c.26.26.57.38.95.38ZM14.07,23l10.07-3.67L18.21,3l-10.07,3.67,5.93,16.33Z"/>
</svg>