<?xml version="1.0" encoding="UTF-8"?>
<svg id="Ebene_1" xmlns="http://www.w3.org/2000/svg" version="1.1" viewBox="0 0 50 50">
  <!-- Generator: Adobe Illustrator 30.3.0, SVG Export Plug-In . SVG Version: 2.1.3 Build 182)  -->
  <defs>
    <style>
      .st0 {
        fill: #3ac1ff;
      }
    </style>
  </defs>
  <path class="st0" d="M7.33,42.78c-1.25,0-2.33-.44-3.22-1.31-.89-.87-1.34-1.92-1.34-3.14V11.66c0-1.22.44-2.27,1.34-3.14.89-.87,1.97-1.31,3.22-1.31h25.08c.72,0,1.4.16,2.05.47.65.31,1.18.75,1.6,1.31l10.26,13.34c.61.78.91,1.67.91,2.67s-.3,1.89-.91,2.67l-10.26,13.34c-.42.56-.95.99-1.6,1.31-.64.31-1.33.47-2.05.47H7.33Z"/>
</svg>