<?xml version="1.0" encoding="UTF-8"?>
<svg id="Ebene_1" xmlns="http://www.w3.org/2000/svg" version="1.1" viewBox="0 0 200 250">
  <!-- Generator: Adobe Illustrator 30.3.0, SVG Export Plug-In . SVG Version: 2.1.3 Build 182)  -->
  <defs>
    <style>
      .st0 {
        fill: #ff9727;
      }
    </style>
  </defs>
  <path class="st0" d="M25,250c-6.88,0-12.76-2.45-17.66-7.34-4.9-4.9-7.34-10.78-7.34-17.66v-24.69c0-4.17.94-8.02,2.81-11.56s4.38-6.56,7.5-9.06c14.38-11.67,25.16-23.44,32.34-35.31,7.19-11.88,12.24-22.5,15.16-31.88h-20.31c-3.54,0-6.51-1.2-8.91-3.59-2.4-2.4-3.59-5.36-3.59-8.91s1.2-6.51,3.59-8.91c2.4-2.4,5.36-3.59,8.91-3.59h15.62c-2.92-4.58-5.21-9.48-6.88-14.69s-2.5-10.73-2.5-16.56c0-15.62,5.47-28.91,16.41-39.84C71.09,5.47,84.38,0,100,0s28.91,5.47,39.84,16.41c10.94,10.94,16.41,24.22,16.41,39.84,0,5.83-.83,11.35-2.5,16.56s-3.96,10.1-6.88,14.69h15.62c3.54,0,6.51,1.2,8.91,3.59,2.4,2.4,3.59,5.36,3.59,8.91s-1.2,6.51-3.59,8.91c-2.4,2.4-5.36,3.59-8.91,3.59h-20.31c2.92,9.38,7.97,20,15.16,31.88,7.19,11.88,17.97,23.65,32.34,35.31,3.12,2.5,5.62,5.52,7.5,9.06,1.87,3.54,2.81,7.4,2.81,11.56v24.69c0,6.88-2.45,12.76-7.34,17.66-4.9,4.9-10.78,7.34-17.66,7.34H25ZM25,225h150v-25c-19.17-15-33.02-30.47-41.56-46.41-8.54-15.94-14.27-29.64-17.19-41.09h-32.5c-2.92,11.46-8.65,25.16-17.19,41.09-8.54,15.94-22.4,31.41-41.56,46.41v25ZM100,87.5c8.75,0,16.15-3.02,22.19-9.06,6.04-6.04,9.06-13.44,9.06-22.19s-3.02-16.15-9.06-22.19c-6.04-6.04-13.44-9.06-22.19-9.06s-16.15,3.02-22.19,9.06c-6.04,6.04-9.06,13.44-9.06,22.19s3.02,16.15,9.06,22.19,13.44,9.06,22.19,9.06Z"/>
</svg>