<?xml version="1.0" encoding="UTF-8"?>
<svg id="Ebene_1" xmlns="http://www.w3.org/2000/svg" version="1.1" viewBox="0 0 50 50">
  <!-- Generator: Adobe Illustrator 30.3.0, SVG Export Plug-In . SVG Version: 2.1.3 Build 182)  -->
  <defs>
    <style>
      .st0 {
        fill: #ff9727;
      }

      .st1 {
        fill: #fff;
      }
    </style>
  </defs>
  <rect class="st0" x=".97" y=".97" width="48.06" height="48.06" rx="9.01" ry="9.01"/>
  <path class="st1" d="M14.39,43.01c-.97,0-1.81-.35-2.5-1.06-.69-.71-1.04-1.55-1.04-2.54v-3.56c0-.6.13-1.16.4-1.67s.62-.95,1.06-1.31c2.04-1.68,3.56-3.38,4.58-5.09,1.02-1.71,1.73-3.24,2.15-4.59h-2.88c-.5,0-.92-.17-1.26-.52-.34-.35-.51-.77-.51-1.28s.17-.94.51-1.28c.34-.35.76-.52,1.26-.52h2.21c-.41-.66-.74-1.37-.97-2.12-.24-.75-.36-1.55-.36-2.39,0-2.25.77-4.17,2.32-5.74,1.55-1.58,3.43-2.36,5.64-2.36s4.09.79,5.64,2.36c1.55,1.58,2.32,3.49,2.32,5.74,0,.84-.12,1.64-.36,2.39-.23.75-.56,1.46-.97,2.12h2.21c.5,0,.92.17,1.26.52.34.35.51.77.51,1.28s-.17.94-.51,1.28c-.34.35-.76.52-1.26.52h-2.88c.41,1.35,1.13,2.88,2.15,4.59,1.02,1.71,2.54,3.41,4.58,5.09.44.36.8.8,1.06,1.31s.4,1.07.4,1.67v3.56c0,.99-.35,1.84-1.04,2.54-.69.71-1.53,1.06-2.5,1.06H14.39ZM14.39,39.41h21.23v-3.6c-2.71-2.16-4.67-4.39-5.88-6.69-1.21-2.3-2.02-4.27-2.43-5.92h-4.6c-.41,1.65-1.22,3.63-2.43,5.92-1.21,2.3-3.17,4.53-5.88,6.69v3.6ZM25,19.6c1.24,0,2.28-.44,3.14-1.31.86-.87,1.28-1.94,1.28-3.2s-.43-2.33-1.28-3.2c-.85-.87-1.9-1.31-3.14-1.31s-2.28.44-3.14,1.31c-.86.87-1.28,1.94-1.28,3.2s.43,2.33,1.28,3.2c.85.87,1.9,1.31,3.14,1.31Z"/>
</svg>