<?xml version="1.0" encoding="UTF-8"?>
<svg id="Ebene_1" xmlns="http://www.w3.org/2000/svg" version="1.1" viewBox="0 0 353 283">
  <!-- Generator: Adobe Illustrator 30.3.0, SVG Export Plug-In . SVG Version: 2.1.3 Build 182)  -->
  <defs>
    <style>
      .st0 {
        fill: #ed1b76;
      }
    </style>
  </defs>
  <path class="st0" d="M332.5,109.3l-28.4-58.3c2.6-2.5,4.3-6,4.3-10,0-7.6-6.2-13.7-13.7-13.7s-7.1,1.5-9.6,3.9h-77.3c-3,0-5.8-1.8-7.1-4.5l-1.1-2.3h-.3c-2.4-3.4-6-5.7-10-6.5-.4-3.5-1.6-6.8-3.5-9.5-2.6-3.5-6.2-5.5-10.1-5.5s-7.5,2-10.1,5.5c-1.9,2.6-3.2,5.9-3.5,9.5-4.9,1-9.2,4.2-11.3,8.8-1.3,2.7-4.1,4.5-7.1,4.5h-76.2c-2.5-2.4-5.8-3.9-9.6-3.9-7.6,0-13.7,6.2-13.7,13.7s1.6,7.4,4.2,9.9l-28.4,58.4H7.3l.5,1.3c6.3,18.3,27,31.1,50.4,31.1s44.1-12.8,50.4-31.1l.5-1.3h-12.5l-28.6-58.8c.2-.2.4-.4.5-.6h83.3v4.5c0,3.4.9,6.5,2.5,9.1l-11.7,10,2.5,3c11.7,14.4,18,34,19,60v67.7c-4.7.8-8.3,5-8.3,9.9v8.3c0,2.8,1.1,5.3,3,7.1-1.8,1.7-3,4-3,6.6v4c0,6.1-5.8,11.1-12.8,11.1h-23.5c-8.9,0-16.1,6.4-16.1,14.4s7.2,14.4,16.1,14.4h112.7c8.9,0,16.1-6.4,16.1-14.4s-7.2-14.4-16.1-14.4h-23.5c-7.1,0-12.8-5-12.8-11.1v-4c0-2.6-1.1-4.9-3-6.6,1.8-1.8,3-4.3,3-7.1v-8.3c0-4.9-3.6-9-8.3-9.9v-67.6c1.1-26,7.3-45.6,19-59.9l2.5-3-11.7-10c1.6-2.6,2.5-5.8,2.5-9.2v-4.5h84.4c.1.2.3.3.5.5l-28.7,58.9h-12.2l.5,1.3c6.3,18.3,27,31.1,50.4,31.1s44.1-12.8,50.4-31.1l.5-1.3h-13.2ZM299.2,63.7l22.2,45.6h-22.2v-45.6ZM289.3,109.3h-22.3l22.3-45.7v45.7ZM53.3,109.3h-22.3l22.3-45.7v45.7ZM63.2,109.3v-45.6l22.2,45.6h-22.2Z"/>
</svg>